<?xml version="1.0" encoding="iso-8859-1"?>
<!-- Generator: Adobe Illustrator 19.0.0, SVG Export Plug-In . SVG Version: 6.00 Build 0)  -->
<svg version="1.1" id="Capa_1" xmlns="http://www.w3.org/2000/svg" xmlns:xlink="http://www.w3.org/1999/xlink" x="0px" y="0px"
	 viewBox="0 0 512.001 512.001" style="enable-background:new 0 0 512.001 512.001;" xml:space="preserve">
<g>
	<g>
		<path d="M256.003,0h-0.004C156.678,0,75.875,80.803,75.875,180.124c0,60.018,28.583,133.447,84.953,218.249
			c41.385,62.257,82.154,106.801,83.869,108.667c2.908,3.162,7.011,4.962,11.306,4.962c4.295,0,8.394-1.799,11.302-4.962
			c1.715-1.866,42.485-46.41,83.869-108.667c56.37-84.801,84.953-158.231,84.953-218.249C436.126,80.803,355.323,0,256.003,0z
			 M327.665,254.073c0,8.478-6.873,15.352-15.352,15.352c-8.478,0-15.352-6.873-15.352-15.352v-51.538h-81.923v51.538
			c0,8.478-6.873,15.352-15.352,15.352c-8.478,0-15.352-6.873-15.352-15.352V120.292c0-8.478,6.873-15.352,15.352-15.352
			c8.478,0,15.352,6.873,15.352,15.352v51.538h81.923v-51.538c0-8.478,6.873-15.352,15.352-15.352
			c8.478,0,15.352,6.873,15.352,15.352V254.073z"/>
	</g>
</g>
<g>
</g>
<g>
</g>
<g>
</g>
<g>
</g>
<g>
</g>
<g>
</g>
<g>
</g>
<g>
</g>
<g>
</g>
<g>
</g>
<g>
</g>
<g>
</g>
<g>
</g>
<g>
</g>
<g>
</g>
</svg>
