<svg height="461pt" viewBox="-45 0 461 461.05918" width="461pt" xmlns="http://www.w3.org/2000/svg"><path d="m153.460938 148.289062c0 .308594.070312.617188.070312.9375 0 .320313-.070312.632813-.070312.941407v101.363281h70v-164h-70zm48-33.199218c0-3.867188 3.132812-7 7-7 3.863281 0 7 3.132812 7 7v12.675781c0 3.867187-3.136719 7-7 7-3.867188 0-7-3.132813-7-7zm0 33.511718c0-3.867187 3.132812-7 7-7 3.863281 0 7 3.132813 7 7v12.675782c0 3.867187-3.136719 7-7 7-3.867188 0-7-3.132813-7-7zm0 33.511719c0-3.867187 3.132812-7 7-7 3.863281 0 7 3.132813 7 7v12.675781c0 3.867188-3.136719 7-7 7-3.867188 0-7-3.132812-7-7zm0 33.511719c0-3.867188 3.132812-7 7-7 3.863281 0 7 3.132812 7 7v12.675781c0 3.863281-3.136719 7-7 7-3.867188 0-7-3.136719-7-7zm-20-100.539062c0-3.867188 3.132812-7 7-7 3.863281 0 7 3.132812 7 7v12.675781c0 3.867187-3.136719 7-7 7-3.867188 0-7-3.132813-7-7zm0 33.511718c0-3.867187 3.132812-7 7-7 3.863281 0 7 3.132813 7 7v12.675782c0 3.867187-3.136719 7-7 7-3.867188 0-7-3.132813-7-7zm0 33.511719c0-3.867187 3.132812-7 7-7 3.863281 0 7 3.132813 7 7v12.675781c0 3.867188-3.136719 7-7 7-3.867188 0-7-3.132812-7-7zm0 33.511719c0-3.863282 3.132812-7 7-7 3.863281 0 7 3.136718 7 7v12.679687c0 3.863281-3.136719 7-7 7-3.867188 0-7-3.136719-7-7zm-19-100.535156c0-3.867188 3.132812-7 7-7 3.863281 0 7 3.132812 7 7v12.675781c0 3.867187-3.136719 7-7 7-3.867188 0-7-3.132813-7-7zm0 33.511718c0-3.867187 3.132812-7 7-7 3.863281 0 7 3.132813 7 7v12.675782c0 3.867187-3.136719 7-7 7-3.867188 0-7-3.132813-7-7zm0 33.511719c0-3.867187 3.132812-7 7-7 3.863281 0 7 3.132813 7 7v12.675781c0 3.867188-3.136719 7-7 7-3.867188 0-7-3.132812-7-7zm0 33.511719c0-3.863282 3.132812-7 7-7 3.863281 0 7 3.136718 7 7v12.679687c0 3.863281-3.136719 7-7 7-3.867188 0-7-3.136719-7-7zm0 0"/><path d="m237.460938 251.53125h37v-118h-37zm13.375-104h8.257812c3.867188 0 7 3.132812 7 7 0 3.863281-3.132812 7-7 7h-8.257812c-3.863282 0-7-3.136719-7-7 0-3.867188 3.136718-7 7-7zm0 20h8.257812c3.867188 0 7 3.132812 7 7 0 3.863281-3.132812 7-7 7h-8.257812c-3.863282 0-7-3.136719-7-7 0-3.867188 3.136718-7 7-7zm0 20h8.257812c3.867188 0 7 3.132812 7 7 0 3.863281-3.132812 7-7 7h-8.257812c-3.863282 0-7-3.136719-7-7 0-3.867188 3.136718-7 7-7zm0 20h8.257812c3.867188 0 7 3.132812 7 7 0 3.863281-3.132812 7-7 7h-8.257812c-3.863282 0-7-3.136719-7-7 0-3.867188 3.136718-7 7-7zm0 19h8.257812c3.867188 0 7 3.132812 7 7 0 3.863281-3.132812 7-7 7h-8.257812c-3.863282 0-7-3.136719-7-7 0-3.867188 3.136718-7 7-7zm0 0"/><path d="m120.460938 176.730469c.046874 1.808593-.644532 3.558593-1.917969 4.84375-1.273438 1.28125-3.019531 1.988281-4.828125 1.957031h-17.253906v68h43v-95h-19zm0 0"/><path d="m185.460938 41.503906c-79.335938 0-143.882813 64.546875-143.882813 143.882813 0 79.332031 64.546875 143.878906 143.882813 143.878906 79.335937 0 143.878906-64.542969 143.878906-143.878906 0-79.339844-64.542969-143.882813-143.878906-143.882813zm103 217.070313c.039062 1.835937-.664063 3.605469-1.949219 4.914062-1.285157 1.308594-3.042969 2.046875-4.875 2.042969h-192.355469c-1.832031.003906-3.589844-.734375-4.875-2.042969-1.28125-1.308593-1.984375-3.078125-1.945312-4.914062v-81.84375c-.101563-3.871094 2.953124-7.09375 6.820312-7.199219h17.179688v-20.300781c0-3.867188 3.390624-6.699219 7.253906-6.699219h25.746094v-62.046875c.152343-3.917969 3.394531-7 7.3125-6.953125h83.871093c1.832031-.003906 3.589844.730469 4.871094 2.039062 1.285156 1.308594 1.984375 3.082032 1.945313 4.914063v39.046875h44.175781c1.808593-.058594 3.5625.628906 4.851562 1.898438 1.289063 1.269531 2 3.011718 1.972657 4.820312zm0 0"/><path d="m185.460938 0c-61.683594 0-117.125 29.035156-152.101563 79.660156-34.851563 50.433594-42.925781 114.214844-21.597656 170.617188 5.441406 14.695312 14.199219 29.082031 26.058593 42.808594l140 164.445312c1.90625 2.238281 4.699219 3.527344 7.640626 3.527344 2.941406 0 5.730468-1.289063 7.636718-3.527344l139.96875-164.40625.035156-.039062c12.355469-14.308594 20.863282-28.269532 26.015626-42.6875.011718-.042969.027343-.082032.042968-.121094 21.324219-56.402344 13.253906-120.183594-21.601562-170.617188-34.976563-50.625-90.414063-79.660156-152.097656-79.660156zm0 343.265625c-87.058594 0-157.882813-70.824219-157.882813-157.878906 0-87.058594 70.824219-157.882813 157.882813-157.882813 87.054687 0 157.878906 70.824219 157.878906 157.882813 0 87.054687-70.824219 157.878906-157.878906 157.878906zm0 0"/></svg>