<svg height="511pt" viewBox="0 0 511 511.99953" width="511pt" xmlns="http://www.w3.org/2000/svg"><path d="m458.53125 206.539062c0-2.628906-1.070312-5.210937-2.929688-7.070312-1.859374-1.859375-4.441406-2.929688-7.070312-2.929688s-5.210938 1.070313-7.070312 2.929688c-1.859376 1.859375-2.929688 4.441406-2.929688 7.070312 0 2.640626 1.070312 5.210938 2.929688 7.070313 1.859374 1.871094 4.441406 2.929687 7.070312 2.929687s5.210938-1.058593 7.070312-2.929687c1.859376-1.859375 2.929688-4.441406 2.929688-7.070313zm0 0"/><path d="m328.496094 169.574219 64.480468 82.605469c3.816407 4.886718 9.5625 7.691406 15.765626 7.691406h.003906c6.203125 0 11.949218-2.804688 15.765625-7.699219l6.609375-8.46875c3.394531-4.355469 2.621094-10.640625-1.734375-14.039063-4.351563-3.398437-10.636719-2.621093-14.035157 1.734376l-6.609374 8.472656-63.882813-81.847656c-.21875-.335938-.453125-.660157-.714844-.976563-12.347656-14.945313-19.148437-33.875-19.148437-53.300781 0-22.589844 8.859375-43.765625 24.941406-59.628906 16.082031-15.859376 37.398438-24.410157 59.996094-24.109376 45.839844.632813 82.875 38.464844 82.558594 84.332032-.132813 19.273437-6.632813 37.351562-18.796876 52.273437-.113281.140625-.222656.28125-.332031.429688l-8.800781 11.277343c-3.394531 4.355469-2.621094 10.640626 1.734375 14.039063 4.355469 3.394531 10.636719 2.621094 14.035156-1.734375l9.007813-11.542969c.023437-.035156.050781-.070312.078125-.105469 14.71875-18.183593 22.910156-41.074218 23.074219-64.496093.390624-56.820313-45.492188-103.6875-102.285157-104.4687502-27.992187-.3945308-54.394531 10.2226562-74.3125 29.8671872-19.925781 19.652344-30.898437 45.886719-30.898437 73.871094 0 23.726562 8.195312 46.863281 23.09375 65.261719.128906.191406.265625.378906.40625.5625zm0 0"/><path d="m358.566406 103.75c0 27.667969 22.507813 50.175781 50.175782 50.175781 27.667968 0 50.179687-22.507812 50.179687-50.175781s-22.511719-50.179688-50.179687-50.179688c-27.667969 0-50.175782 22.511719-50.175782 50.179688zm80.355469 0c0 16.636719-13.539063 30.175781-30.179687 30.175781-16.640626 0-30.179688-13.539062-30.179688-30.175781 0-16.640625 13.539062-30.179688 30.179688-30.179688 16.640624 0 30.179687 13.539063 30.179687 30.179688zm0 0"/><path d="m468.746094 385.214844c-1.179688.703125-2.402344 1.363281-3.640625 1.960937-4.972657 2.410157-7.050781 8.390625-4.644531 13.359375 1.726562 3.566406 5.292968 5.644532 9.007812 5.644532 1.460938 0 2.945312-.320313 4.351562-1 1.75-.847657 3.484376-1.78125 5.15625-2.773438 4.746094-2.828125 6.304688-8.960938 3.476563-13.710938-2.824219-4.746093-8.957031-6.300781-13.707031-3.480468zm0 0"/><path d="m250.351562 392h-5c-5.523437 0-10 4.476562-10 10s4.476563 10 10 10h5c5.519532 0 10-4.476562 10-10s-4.476562-10-10-10zm0 0"/><path d="m286.492188 295c5.523437 0 10-4.476562 10-10s-4.476563-10-10-10h-5c-5.523438 0-10 4.476562-10 10s4.476562 10 10 10zm0 0"/><path d="m497.488281 329.78125c1.355469 0 2.738281-.277344 4.054688-.863281 5.050781-2.242188 7.320312-8.152344 5.078125-13.199219-.792969-1.78125-1.667969-3.542969-2.601563-5.238281-2.664062-4.839844-8.746093-6.597657-13.585937-3.933594-4.835938 2.667969-6.597656 8.75-3.929688 13.585937.660156 1.199219 1.28125 2.449219 1.839844 3.707032 1.65625 3.730468 5.3125 5.941406 9.144531 5.941406zm0 0"/><path d="m503.074219 349.234375c-5.332031-1.453125-10.828125 1.695313-12.273438 7.023437-.363281 1.328126-.785156 2.652344-1.257812 3.941407-1.902344 5.1875.757812 10.929687 5.941406 12.835937 1.136719.414063 2.300781.613282 3.445313.613282 4.074218 0 7.902343-2.511719 9.386718-6.558594.671875-1.828125 1.269532-3.703125 1.78125-5.582032 1.449219-5.328124-1.695312-10.824218-7.023437-12.273437zm0 0"/><path d="m421.492188 295c5.523437 0 10-4.476562 10-10s-4.476563-10-10-10h-5c-5.523438 0-10 4.476562-10 10s4.476562 10 10 10zm0 0"/><path d="m340.351562 392h-5c-5.523437 0-10 4.476562-10 10s4.476563 10 10 10h5c5.519532 0 10-4.476562 10-10s-4.476562-10-10-10zm0 0"/><path d="m465.933594 299.257812c3.953125 0 7.695312-2.359374 9.273437-6.246093 2.070313-5.121094-.394531-10.949219-5.515625-13.023438-1.804687-.730469-3.664062-1.394531-5.523437-1.964843-5.285157-1.625-10.875 1.335937-12.5 6.613281-1.625 5.28125 1.335937 10.875 6.617187 12.5 1.3125.40625 2.625.871093 3.898438 1.386719 1.230468.5 2.5.734374 3.75.734374zm0 0"/><path d="m376.492188 295c5.523437 0 10-4.476562 10-10s-4.476563-10-10-10h-5c-5.523438 0-10 4.476562-10 10s4.476562 10 10 10zm0 0"/><path d="m430.351562 392h-5c-5.523437 0-10 4.476562-10 10s4.476563 10 10 10h5c5.519532 0 10-4.476562 10-10s-4.476562-10-10-10zm0 0"/><path d="m385.351562 392h-5c-5.523437 0-10 4.476562-10 10s4.476563 10 10 10h5c5.519532 0 10-4.476562 10-10s-4.476562-10-10-10zm0 0"/><path d="m295.351562 392h-5c-5.523437 0-10 4.476562-10 10s4.476563 10 10 10h5c5.519532 0 10-4.476562 10-10s-4.476562-10-10-10zm0 0"/><path d="m331.492188 295c5.523437 0 10-4.476562 10-10s-4.476563-10-10-10h-5c-5.523438 0-10 4.476562-10 10s4.476562 10 10 10zm0 0"/><path d="m283.460938 143.925781c0-5.523437-4.476563-10-10-10h-5c-5.519532 0-10 4.476563-10 10 0 5.523438 4.480468 10 10 10h5c5.523437 0 10-4.476562 10-10zm0 0"/><path d="m179.691406 161.605469c1.53125 0 3.082032-.351563 4.539063-1.097657 1.269531-.648437 2.578125-1.257812 3.886719-1.8125 5.085937-2.152343 7.464843-8.023437 5.308593-13.109374-2.152343-5.082032-8.019531-7.460938-13.105469-5.304688-1.746093.738281-3.488281 1.550781-5.183593 2.414062-4.917969 2.511719-6.871094 8.535157-4.359375 13.453126 1.765625 3.464843 5.277344 5.457031 8.914062 5.457031zm0 0"/><path d="m223.460938 153.925781h5c5.523437 0 10-4.476562 10-10 0-5.523437-4.476563-10-10-10h-5c-5.519532 0-10 4.476563-10 10 0 5.523438 4.480468 10 10 10zm0 0"/><path d="m132.410156 228.550781c.855469 4.851563 5.074219 8.265625 9.835938 8.265625.578125 0 1.164062-.050781 1.75-.15625 5.441406-.960937 9.070312-6.148437 8.109375-11.585937-.246094-1.40625-.449219-2.832031-.59375-4.25-.574219-5.492188-5.511719-9.480469-10.984375-8.910157-5.492188.574219-9.480469 5.492188-8.910156 10.984376.195312 1.882812.464843 3.785156.792968 5.652343zm0 0"/><path d="m144.089844 191.976562c1.433594.714844 2.957031 1.054688 4.457031 1.054688 3.671875 0 7.203125-2.03125 8.957031-5.539062.632813-1.273438 1.324219-2.539063 2.046875-3.765626 2.808594-4.757812 1.230469-10.890624-3.527343-13.695312-4.753907-2.808594-10.882813-1.230469-13.695313 3.523438-.960937 1.628906-1.875 3.316406-2.722656 5.007812-2.464844 4.941406-.457031 10.949219 4.484375 13.414062zm0 0"/><path d="m155.359375 266.65625 1.332031 1.496094c1.976563 2.21875 4.71875 3.347656 7.472656 3.347656 2.363282 0 4.738282-.835938 6.644532-2.53125 4.125-3.675781 4.492187-9.996094.816406-14.121094l-1.332031-1.496094c-3.675781-4.121093-9.992188-4.488281-14.117188-.816406-4.125 3.675782-4.492187 9.996094-.816406 14.121094zm0 0"/><path d="m247.320312 273.398438c-.703124-4.214844-4.003906-7.515626-8.21875-8.21875-22.988281-3.835938-46.5625 3.710937-63.050781 20.199218l-19.164062 19.164063-121.082031-11.550781c-2.960938-.277344-5.914063.773437-8.023438 2.882812l-21.613281 21.617188c-2.25 2.25-3.296875 5.441406-2.8125 8.585937.480469 3.148437 2.433593 5.878906 5.257812 7.351563l78.464844 40.921874-24.964844 24.964844-25.832031-5.9375c-3.359375-.769531-6.875.242188-9.3125 2.675782l-23.539062 23.542968c-2.285157 2.285156-3.324219 5.53125-2.792969 8.722656.535156 3.1875 2.574219 5.917969 5.480469 7.335938l47.457031 23.144531 23.273437 47.589844c1.421875 2.902344 4.152344 4.941406 7.339844 5.472656.546875.089844 1.097656.136719 1.644531.136719 2.628907 0 5.183594-1.039062 7.070313-2.929688l23.542968-23.542968c2.4375-2.4375 3.449219-5.960938 2.671876-9.324219l-5.964844-25.785156 24.996094-24.996094 40.921874 78.460937c1.472657 2.824219 4.203126 4.777344 7.351563 5.261719.507813.078125 1.011719.117188 1.519531.117188 2.628906 0 5.179688-1.042969 7.070313-2.929688l21.613281-21.613281c2.109375-2.109375 3.164062-5.050781 2.882812-8.023438l-11.550781-121.082031 19.164063-19.164062c16.488281-16.488281 24.039062-40.058594 20.199218-63.050781zm-217.375 48.601562 8.648438-8.648438 99.953125 9.53125-36.644531 36.644532zm169.203126 151.90625-8.644532 8.644531-37.53125-71.953125 36.644532-36.644531zm-65.457032-72.3125c-.023437.023438-.042968.042969-.066406.066406l-38.539062 38.539063c-2.4375 2.441406-3.449219 5.964843-2.671876 9.328125l5.964844 25.78125-9.714844 9.71875-18.636718-38.101563c-.976563-2-2.597656-3.617187-4.597656-4.59375l-37.945313-18.507812 9.714844-9.710938 25.832031 5.933594c3.355469.773437 6.875-.238281 9.3125-2.671875l117.851562-117.855469c10.132813-10.132812 23.957032-15.613281 38.097657-15.3125.289062 14.132813-5.179688 27.964844-15.3125 38.097657zm0 0"/></svg>