<?xml version="1.0" encoding="iso-8859-1"?>
<!-- Generator: Adobe Illustrator 17.1.0, SVG Export Plug-In . SVG Version: 6.00 Build 0)  -->
<!DOCTYPE svg PUBLIC "-//W3C//DTD SVG 1.1//EN" "http://www.w3.org/Graphics/SVG/1.1/DTD/svg11.dtd">
<svg version="1.1" id="Capa_1" xmlns="http://www.w3.org/2000/svg" xmlns:xlink="http://www.w3.org/1999/xlink" x="0px" y="0px"
	 viewBox="0 0 195.84 195.84" style="enable-background:new 0 0 195.84 195.84;" xml:space="preserve">
<path d="M195.732,99.447c-0.619-3.613-3.726-6.235-7.387-6.235c-0.423,0-0.851,0.036-1.271,0.108l-57.527,9.849
	c-4.661-13.083-16.063-23.985-25.472-27.167c0.321-2.469,0.512-5.092,0.512-7.706c0-10.744-3.054-21.25-5.333-21.25
	c-2.351,0-5.333,10.005-5.333,21.25c0,2.59,0.179,5.164,0.48,7.582c-9.282,3.078-21.234,14.491-26.072,27.639L8.766,93.32
	c-0.42-0.072-0.848-0.108-1.271-0.108c-3.661,0-6.768,2.622-7.387,6.235c-0.697,4.075,2.051,7.959,6.127,8.658l20.185,3.456v5.594
	c-2.468,1.019-4.211,3.449-4.211,6.282c0,3.747,3.048,6.795,6.795,6.795s6.795-3.048,6.795-6.795c0-2.895-1.823-5.366-4.378-6.343
	v-4.677l16,2.739v2.999c-2.468,1.019-4.211,3.449-4.211,6.282c0,3.747,3.048,6.795,6.795,6.795s6.795-3.048,6.795-6.795
	c0-2.895-1.823-5.366-4.378-6.343v-2.081l13.873,2.375c1.501,17.811,14.756,30.406,32.627,30.406
	c17.985,0,31.292-12.759,32.65-30.752l11.85-2.029v2.081c-2.555,0.977-4.378,3.448-4.378,6.343c0,3.747,3.048,6.795,6.795,6.795
	s6.795-3.048,6.795-6.795c0-2.832-1.743-5.263-4.211-6.282v-2.999l16-2.739v4.677c-2.555,0.977-4.378,3.448-4.378,6.343
	c0,3.747,3.048,6.795,6.795,6.795s6.795-3.048,6.795-6.795c0-2.832-1.743-5.263-4.211-6.282v-5.594l20.185-3.456
	C193.681,107.406,196.429,103.522,195.732,99.447z M110.92,117.92h-25c-3.038,0-5.5-2.462-5.5-5.5s2.462-5.5,5.5-5.5h25
	c3.038,0,5.5,2.462,5.5,5.5S113.958,117.92,110.92,117.92z"/>
<g>
</g>
<g>
</g>
<g>
</g>
<g>
</g>
<g>
</g>
<g>
</g>
<g>
</g>
<g>
</g>
<g>
</g>
<g>
</g>
<g>
</g>
<g>
</g>
<g>
</g>
<g>
</g>
<g>
</g>
</svg>
