<?xml version="1.0" encoding="iso-8859-1"?>
<!-- Generator: Adobe Illustrator 19.0.0, SVG Export Plug-In . SVG Version: 6.00 Build 0)  -->
<svg version="1.1" id="Layer_1" xmlns="http://www.w3.org/2000/svg" xmlns:xlink="http://www.w3.org/1999/xlink" x="0px" y="0px"
	 viewBox="0 0 512.029 512.029" style="enable-background:new 0 0 512.029 512.029;" xml:space="preserve">
<g>
	<g>
		<path d="M508.921,3.122c-3.307-3.307-8.32-4.053-12.48-1.92l-490.667,256c-5.227,2.773-7.253,9.173-4.587,14.4
			c1.813,3.52,5.547,5.76,9.493,5.76h224.107v224c0,4.907,3.307,9.173,8.107,10.347c0.853,0.213,1.707,0.32,2.56,0.32
			c3.947,0,7.573-2.24,9.493-5.76L510.841,15.602C512.974,11.442,512.121,6.429,508.921,3.122z M256.121,457.842V266.695
			c0-5.867-4.8-10.667-10.667-10.667H54.201l422.08-220.16L256.121,457.842z"/>
	</g>
</g>
<g>
</g>
<g>
</g>
<g>
</g>
<g>
</g>
<g>
</g>
<g>
</g>
<g>
</g>
<g>
</g>
<g>
</g>
<g>
</g>
<g>
</g>
<g>
</g>
<g>
</g>
<g>
</g>
<g>
</g>
</svg>
