<?xml version="1.0" encoding="iso-8859-1"?>
<!-- Generator: Adobe Illustrator 16.0.0, SVG Export Plug-In . SVG Version: 6.00 Build 0)  -->
<!DOCTYPE svg PUBLIC "-//W3C//DTD SVG 1.1//EN" "http://www.w3.org/Graphics/SVG/1.1/DTD/svg11.dtd">
<svg version="1.1" id="Capa_1" xmlns="http://www.w3.org/2000/svg" xmlns:xlink="http://www.w3.org/1999/xlink" x="0px" y="0px"
	 width="523.11px" height="523.11px" viewBox="0 0 523.11 523.11" style="enable-background:new 0 0 523.11 523.11;"
	 xml:space="preserve">
<g>
	<path d="M261.556,0C119.86,0,4.579,117.333,4.579,261.552c0,144.223,115.282,261.558,256.977,261.558
		c141.694,0,256.976-117.335,256.976-261.558C518.531,117.333,403.25,0,261.556,0z M513.636,266.243
		c-0.467-1.488-0.999-2.987-1.802-4.405c-1.302-2.516-2.529-5.276-4.442-7.61c-0.896-1.204-1.778-2.441-2.735-3.636
		c-0.999-1.148-2.096-2.203-3.155-3.307c-2.118-2.214-4.555-4.044-6.963-5.808c-2.408-1.743-5.003-3.111-7.481-4.401
		c-2.562-1.127-5.017-2.261-7.481-2.924c-2.398-0.803-4.76-1.313-6.936-1.683c-3.868-0.621-7.141-0.721-9.646-0.592
		c-2.945-20.078-8.835-39.199-17.207-56.938c2.034,0.542,4.434,1.195,7.084,1.979c1.933,0.543,3.995,1.132,6.119,1.839
		c2.133,0.569,4.308,1.486,6.571,2.165c2.198,0.898,4.494,1.664,6.729,2.618c2.198,1.058,4.531,1.86,6.637,3.118
		c1.078,0.543,2.217,1.017,3.271,1.61c1.008,0.679,2.072,1.251,3.099,1.865c2.151,1.108,3.977,2.604,5.941,3.859
		c2.04,1.181,3.612,2.808,5.399,4.082c1.84,1.249,3.305,2.726,4.775,4.053c1.428,1.354,3.075,2.429,4.158,3.657
		c0.952,1.031,1.895,1.897,2.726,2.676c3.556,17.138,5.456,34.892,5.456,53.093C513.753,263.13,513.664,264.679,513.636,266.243z
		 M464.669,395.582c-0.131-1.512-0.401-3.015-0.607-4.527c-0.42-3.043-1.307-5.95-2.221-8.793c-0.925-2.828-2.217-5.46-3.468-7.962
		c-1.414-2.417-2.735-4.778-4.336-6.767c-1.475-2.063-3.08-3.864-4.625-5.433c-2.781-2.801-5.396-4.816-7.51-6.18
		c9.134-17.394,15.821-36.244,19.611-56.126c1.325,1.634,2.88,3.565,4.556,5.75c1.246,1.577,2.566,3.267,3.873,5.082
		c1.396,1.723,2.613,3.738,4.051,5.619c1.242,2.021,2.66,3.986,3.902,6.072c1.157,2.146,2.576,4.163,3.537,6.422
		c0.542,1.083,1.186,2.128,1.689,3.225c0.42,1.144,0.938,2.236,1.419,3.332c1.088,2.161,1.689,4.443,2.534,6.613
		c0.957,2.152,1.274,4.388,1.97,6.469c0.751,2.096,1.078,4.154,1.479,6.086c0.359,1.938,1.064,3.767,1.223,5.404
		c0.196,1.625,0.509,3.09,0.732,4.317c0.023,0.107,0.042,0.183,0.061,0.285c-8.382,19.419-19.055,37.579-31.68,54.147
		c0.262-0.616,0.556-1.195,0.756-1.849c0.794-2.464,1.928-5.04,2.25-7.868c0.42-2.811,1.045-5.76,0.877-8.766
		C464.729,398.629,464.743,397.113,464.669,395.582z M437.628,353.783c-9.344,17.768-21.259,33.977-35.312,48.071l-96.104-132.293
		c0.457-2.585,0.737-5.236,0.747-7.952l129.161,93.854l1.405-1.933l0.788-1.087c-0.195,0.388-0.392,0.779-0.593,1.162
		c-0.103-0.037-0.195-0.075-0.195-0.075S437.562,353.62,437.628,353.783z M400.506,403.604
		c-14.239,13.927-30.551,25.716-48.426,34.9l-50.517-155.493c1.265-2.343,2.306-4.816,3.141-7.388l93.86,129.189l1.927-1.404
		l0.915-0.668c-0.266,0.262-0.536,0.504-0.798,0.766c-0.047-0.037-0.117-0.098-0.117-0.098S400.496,403.506,400.506,403.604z
		 M349.979,439.583c-0.064-0.098-0.116-0.187-0.116-0.187s-0.028,0.103-0.079,0.285c-17.623,8.765-36.716,15.004-56.808,18.215
		V294.283c1.927-1.853,3.682-3.879,5.265-6.044l49.35,151.904l2.272-0.737l1.293-0.42
		C350.755,439.181,350.372,439.387,349.979,439.583z M290.652,458.251c-0.038-0.178-0.065-0.267-0.065-0.267
		s-0.08,0.117-0.196,0.294c-9.423,1.382-19.042,2.119-28.835,2.119c-10.471,0-20.755-0.826-30.792-2.395l50.573-155.623
		c2.417-1.177,4.704-2.549,6.869-4.112l-0.009,159.722h2.39h1.866C291.856,458.074,291.249,458.158,290.652,458.251z
		 M228.211,457.542c-20.038-3.397-39.063-9.801-56.598-18.733l96.133-132.321c2.679-0.364,5.283-0.934,7.784-1.745l-49.34,151.862
		l2.275,0.732l1.724,0.56c-0.583-0.088-1.157-0.205-1.738-0.308c0.009-0.149,0.014-0.252,0.014-0.252
		S228.375,457.416,228.211,457.542z M169.329,437.632c-17.766-9.344-33.97-21.259-48.069-35.312l132.295-96.114
		c2.586,0.463,5.232,0.747,7.945,0.747l-93.845,129.171l1.93,1.404l1.075,0.784c-0.382-0.2-0.765-0.392-1.146-0.593
		c0.037-0.098,0.075-0.191,0.075-0.191S169.495,437.567,169.329,437.632z M42.788,388.049c-0.287-0.131-0.511-0.233-0.77-0.351
		c-9.367-16.834-16.918-34.84-22.39-53.751c1.113,1.61,2.271,3.268,3.808,4.677c2.023,1.988,4.044,4.233,6.576,5.862
		c1.23,0.868,2.448,1.777,3.729,2.613c1.304,0.784,2.676,1.456,4.023,2.165c2.695,1.457,5.577,2.446,8.412,3.375
		c2.833,0.919,5.72,1.418,8.478,1.881c2.795,0.279,5.472,0.597,8.029,0.476c2.532,0.014,4.931-0.224,7.11-0.551
		c3.895-0.606,7.059-1.53,9.404-2.437c8.938,17.94,20.442,34.378,34.037,48.842c-2.126,0.116-4.658,0.233-7.475,0.312
		c-2.011,0.074-4.146,0.158-6.389,0.14c-2.217,0.122-4.56-0.079-6.919-0.023c-2.366-0.173-4.796-0.191-7.223-0.42
		c-2.413-0.312-4.879-0.359-7.269-0.9c-1.195-0.196-2.417-0.299-3.607-0.527c-1.167-0.331-2.348-0.551-3.524-0.812
		c-2.39-0.392-4.587-1.246-6.847-1.834c-2.298-0.495-4.298-1.545-6.396-2.212c-2.13-0.626-3.99-1.578-5.796-2.381
		c-1.769-0.849-3.666-1.362-5.08-2.184C45.283,389.197,43.906,388.59,42.788,388.049z M58.444,127.53
		c0.128,1.514,0.397,3.02,0.611,4.525c0.411,3.041,1.295,5.946,2.212,8.79c0.919,2.829,2.219,5.461,3.465,7.962
		c1.414,2.427,2.735,4.779,4.335,6.772c1.486,2.062,3.087,3.859,4.63,5.432c2.786,2.8,5.4,4.816,7.509,6.184
		c-9.133,17.387-15.829,36.24-19.613,56.122c-1.326-1.629-2.877-3.561-4.555-5.745c-1.239-1.583-2.558-3.27-3.867-5.085
		c-1.405-1.724-2.618-3.736-4.053-5.614c-1.256-2.019-2.665-3.991-3.899-6.083c-1.167-2.133-2.576-4.159-3.54-6.41
		c-0.546-1.085-1.186-2.131-1.692-3.234c-0.417-1.139-0.933-2.224-1.417-3.328c-1.09-2.164-1.691-4.443-2.536-6.613
		c-0.957-2.152-1.281-4.392-1.97-6.476c-0.749-2.093-1.076-4.154-1.486-6.083c-0.353-1.925-1.05-3.762-1.223-5.396
		c-0.187-1.631-0.501-3.097-0.726-4.326c-0.021-0.101-0.04-0.175-0.058-0.278c8.382-19.422,19.053-37.582,31.675-54.145
		c-0.257,0.611-0.548,1.188-0.754,1.848c-0.793,2.458-1.927,5.034-2.247,7.867c-0.425,2.81-1.05,5.759-0.88,8.765
		C58.381,124.48,58.362,126.006,58.444,127.53z M85.48,169.333c9.336-17.766,21.256-33.972,35.306-48.069l96.112,132.291
		c-0.462,2.586-0.74,5.234-0.745,7.95L86.985,167.66l-1.405,1.93l-0.789,1.09c0.201-0.387,0.392-0.777,0.593-1.165
		c0.1,0.038,0.196,0.075,0.196,0.075S85.541,169.499,85.48,169.333z M122.602,119.51c14.232-13.924,30.548-25.715,48.423-34.9
		L221.544,240.1c-1.263,2.348-2.303,4.819-3.139,7.391l-93.862-129.185l-1.933,1.405l-0.931,0.679
		c0.268-0.261,0.546-0.516,0.816-0.779c0.044,0.04,0.114,0.1,0.114,0.1S122.607,119.61,122.602,119.51z M173.123,83.534
		c0.065,0.1,0.119,0.191,0.119,0.191s0.028-0.105,0.077-0.292c17.625-8.765,36.718-15.007,56.812-18.213v163.611
		c-1.925,1.855-3.685,3.881-5.26,6.051L175.518,82.983l-2.275,0.737l-1.323,0.43C172.325,83.944,172.722,83.734,173.123,83.534z
		 M232.451,64.865c0.042,0.177,0.07,0.273,0.07,0.273s0.082-0.119,0.2-0.306c9.421-1.376,19.037-2.116,28.834-2.116
		c10.47,0,20.752,0.826,30.791,2.394l-50.568,155.622c-2.417,1.176-4.711,2.548-6.872,4.114V65.134h-2.39h-1.911
		C231.217,65.038,231.833,64.952,232.451,64.865z M294.908,65.565c20.041,3.397,39.059,9.806,56.593,18.743l-96.139,132.318
		c-2.676,0.367-5.281,0.936-7.79,1.743l49.343-151.85l-2.277-0.735l-1.792-0.583c0.606,0.096,1.204,0.22,1.811,0.32
		c-0.009,0.164-0.019,0.259-0.019,0.259S294.74,65.698,294.908,65.565z M353.788,85.484c17.768,9.341,33.967,21.261,48.066,35.311
		l-132.298,96.109c-2.585-0.46-5.227-0.742-7.948-0.747l93.851-129.164l-1.932-1.405l-1.116-0.814
		c0.401,0.206,0.803,0.406,1.2,0.614c-0.047,0.101-0.084,0.201-0.084,0.201S353.62,85.55,353.788,85.484z M480.322,135.046
		c0.28,0.136,0.504,0.236,0.766,0.35c9.371,16.836,16.923,34.844,22.393,53.765c-1.111-1.615-2.269-3.27-3.809-4.674
		c-2.021-1.998-4.042-4.24-6.571-5.864c-1.232-0.875-2.45-1.773-3.733-2.614c-1.293-0.784-2.67-1.449-4.014-2.175
		c-2.702-1.449-5.592-2.438-8.42-3.369c-2.833-0.913-5.722-1.415-8.476-1.874c-2.791-0.28-5.475-0.598-8.027-0.467
		c-2.529-0.03-4.928,0.215-7.112,0.539c-3.893,0.606-7.062,1.533-9.409,2.438c-8.933-17.942-20.441-34.382-34.032-48.848
		c2.124-0.115,4.658-0.236,7.477-0.315c2.007-0.077,4.145-0.154,6.39-0.145c2.207-0.114,4.555,0.086,6.912,0.035
		c2.371,0.17,4.798,0.184,7.215,0.411c2.418,0.32,4.882,0.362,7.271,0.908c1.195,0.191,2.427,0.287,3.604,0.525
		c1.176,0.325,2.361,0.546,3.527,0.812c2.39,0.388,4.593,1.249,6.843,1.836c2.306,0.493,4.303,1.547,6.403,2.212
		c2.128,0.621,3.99,1.573,5.791,2.375c1.778,0.85,3.674,1.363,5.083,2.194C477.82,133.906,479.202,134.517,480.322,135.046z
		 M438.804,351.501l-132.321-96.14c-0.363-2.677-0.933-5.286-1.745-7.79L456.6,296.919l0.732-2.277l0.569-1.755
		c-0.094,0.598-0.215,1.176-0.312,1.773c-0.154-0.009-0.257-0.019-0.257-0.019s0.084,0.098,0.215,0.257
		C454.14,314.944,447.736,333.962,438.804,351.501z M65.517,228.456c0.149,0.01,0.254,0.014,0.254,0.014s-0.082-0.096-0.205-0.254
		c3.397-20.042,9.805-39.059,18.738-56.598l132.323,96.133c0.367,2.679,0.936,5.283,1.748,7.784L66.511,226.199l-0.735,2.275
		l-0.565,1.734C65.302,229.616,65.421,229.037,65.517,228.456z M458.284,232.722c1.372,9.416,2.109,19.037,2.109,28.831
		c0,10.473-0.826,20.76-2.395,30.798l-155.623-50.572c-1.177-2.417-2.549-4.711-4.112-6.867l159.717,0.004v-2.39v-1.897
		c0.099,0.609,0.178,1.22,0.267,1.827c-0.178,0.042-0.267,0.07-0.267,0.07S458.098,232.603,458.284,232.722z M294.283,230.131
		c-1.857-1.93-3.883-3.685-6.049-5.26l151.895-49.345l-0.737-2.275l-0.429-1.323c0.205,0.401,0.42,0.798,0.615,1.204
		c-0.098,0.065-0.187,0.119-0.187,0.119s0.103,0.028,0.294,0.077c8.765,17.625,15.005,36.718,18.206,56.812L294.283,230.131z
		 M403.609,122.606c13.927,14.239,25.716,30.548,34.896,48.423l-155.488,50.514c-2.343-1.26-4.821-2.303-7.393-3.139l129.185-93.853
		l-1.404-1.93l-0.695-0.952c0.271,0.273,0.522,0.556,0.793,0.831c-0.042,0.049-0.103,0.121-0.103,0.121
		S403.502,122.611,403.609,122.606z M23.613,183.941c0.464,2.803,0.779,5.804,1.874,8.609c0.488,1.428,0.936,2.882,1.486,4.305
		c0.593,1.4,1.309,2.749,1.979,4.116c1.328,2.761,3.078,5.255,4.821,7.668c1.75,2.411,3.794,4.513,5.755,6.506
		c2.093,1.87,4.081,3.694,6.216,5.099c2.051,1.5,4.125,2.714,6.082,3.734c3.493,1.792,6.59,2.9,9.012,3.544
		c-1.874,11.073-2.896,22.43-2.896,34.021c0,8.624,0.602,17.1,1.649,25.439c-1.769-1.144-3.848-2.506-6.128-4.074
		c-1.668-1.12-3.446-2.31-5.252-3.64c-1.869-1.204-3.645-2.744-5.586-4.089c-1.815-1.521-3.767-2.968-5.591-4.583
		c-1.769-1.671-3.734-3.159-5.349-4.998c-0.854-0.863-1.788-1.666-2.609-2.549c-0.744-0.957-1.577-1.829-2.375-2.73
		c-1.701-1.717-2.978-3.703-4.459-5.504c-1.575-1.748-2.569-3.78-3.876-5.547c-1.36-1.755-2.303-3.619-3.292-5.33
		c-0.931-1.725-2.159-3.255-2.829-4.756c-0.539-1.186-1.113-2.217-1.633-3.157c1.977-20.278,6.326-39.85,12.678-58.474
		C23.235,179.617,23.17,181.783,23.613,183.941z M64.828,290.395c-1.372-9.423-2.111-19.042-2.111-28.843
		c0-10.468,0.826-20.747,2.394-30.784l155.626,50.573c1.176,2.412,2.548,4.704,4.114,6.86H65.129v2.39v1.895
		c-0.096-0.606-0.177-1.214-0.268-1.82c0.177-0.047,0.268-0.074,0.268-0.074S65.015,290.511,64.828,290.395z M228.832,292.98
		c1.855,1.928,3.885,3.683,6.051,5.256L82.979,347.595l0.737,2.272l0.42,1.302c-0.201-0.401-0.406-0.793-0.602-1.186
		c0.096-0.064,0.182-0.116,0.182-0.116s-0.1-0.028-0.287-0.079c-8.765-17.623-15.007-36.712-18.213-56.809H228.832z M119.51,400.51
		c-13.927-14.235-25.72-30.551-34.9-48.426l155.493-50.517c2.34,1.26,4.816,2.301,7.388,3.137l-129.189,93.864l1.404,1.932
		l0.665,0.91c-0.259-0.266-0.497-0.536-0.761-0.798c0.04-0.047,0.101-0.112,0.101-0.112S119.61,400.5,119.51,400.51z
		 M499.494,339.166c-0.462-2.805-0.774-5.801-1.871-8.605c-0.49-1.429-0.938-2.875-1.489-4.303c-0.588-1.4-1.302-2.745-1.969-4.126
		c-1.335-2.754-3.09-5.255-4.826-7.668c-1.755-2.403-3.799-4.504-5.759-6.492c-2.096-1.871-4.079-3.701-6.222-5.097
		c-2.035-1.503-4.111-2.726-6.072-3.743c-3.49-1.792-6.59-2.894-9.017-3.547c1.876-11.065,2.898-22.43,2.898-34.022
		c0-8.618-0.602-17.098-1.647-25.436c1.765,1.146,3.846,2.503,6.133,4.076c1.666,1.113,3.444,2.308,5.25,3.641
		c1.857,1.204,3.641,2.744,5.582,4.086c1.811,1.533,3.767,2.968,5.592,4.574c1.764,1.683,3.738,3.165,5.348,5.012
		c0.854,0.854,1.793,1.657,2.609,2.544c0.746,0.957,1.582,1.829,2.375,2.726c1.704,1.717,2.978,3.705,4.457,5.507
		c1.578,1.75,2.572,3.78,3.874,5.55c1.362,1.754,2.306,3.616,3.295,5.324c0.934,1.728,2.166,3.258,2.819,4.761
		c0.551,1.186,1.124,2.217,1.643,3.155c-1.975,20.283-6.324,39.852-12.676,58.479C499.877,343.493,499.942,341.327,499.494,339.166z
		 M471.763,119.893c-0.266-0.21-0.485-0.448-0.766-0.649c-2.091-1.514-4.195-3.393-6.795-4.569
		c-2.539-1.276-5.152-2.782-8.064-3.542c-1.438-0.453-2.88-0.931-4.354-1.332c-1.479-0.346-2.987-0.551-4.495-0.826
		c-3.015-0.542-6.066-0.588-9.044-0.603c-2.978,0-5.881,0.42-8.644,0.84c-2.735,0.593-5.386,1.118-7.775,2.03
		c-2.418,0.761-4.63,1.731-6.604,2.716c-3.552,1.797-6.286,3.678-8.246,5.269c-13.885-14.183-29.805-26.355-47.306-36.018
		c1.97-0.761,4.298-1.641,6.912-2.572c1.89-0.693,3.896-1.43,6.034-2.107c2.062-0.793,4.359-1.33,6.59-2.107
		c2.306-0.569,4.62-1.3,6.982-1.841c2.398-0.438,4.76-1.162,7.206-1.376c1.194-0.191,2.389-0.483,3.584-0.616
		c1.223-0.051,2.418-0.206,3.612-0.315c2.39-0.369,4.741-0.236,7.07-0.369c2.343-0.248,4.569,0.14,6.768,0.124
		c2.226-0.07,4.279,0.264,6.249,0.474c1.951,0.259,3.906,0.159,5.507,0.506c1.605,0.317,3.104,0.474,4.336,0.637
		c1.265,0.161,2.282,0.257,2.978,0.315C447.942,87.678,460.8,103.084,471.763,119.893z M422.917,64.394
		c-1.848-1.071-3.836-2.193-6.142-2.905c-2.465-0.793-5.041-1.928-7.869-2.247c-2.81-0.425-5.759-1.05-8.765-0.88
		c-1.508,0.019-3.024,0.004-4.555,0.082c-1.508,0.124-3.016,0.397-4.527,0.602c-3.043,0.42-5.955,1.314-8.793,2.222
		c-2.828,0.924-5.46,2.219-7.962,3.475c-2.417,1.405-4.779,2.73-6.768,4.336c-2.062,1.468-3.864,3.073-5.433,4.62
		c-2.8,2.786-4.816,5.395-6.179,7.509c-17.395-9.138-36.244-15.824-56.126-19.618c1.633-1.325,3.565-2.873,5.75-4.555
		c1.577-1.244,3.262-2.562,5.082-3.876c1.713-1.391,3.729-2.609,5.609-4.044c2.021-1.25,3.99-2.66,6.072-3.899
		c2.146-1.16,4.172-2.581,6.427-3.536c1.078-0.551,2.123-1.195,3.225-1.696c1.144-0.422,2.231-0.938,3.333-1.417
		c2.155-1.09,4.442-1.692,6.612-2.537c2.152-0.957,4.392-1.276,6.474-1.969c2.096-0.75,4.153-1.076,6.081-1.487
		c1.937-0.352,3.771-1.055,5.4-1.213c1.624-0.196,3.099-0.511,4.321-0.742c2.464-0.457,3.953-0.877,3.953-0.877
		s-1.219-0.816-3.528-1.932c-1.153-0.553-2.581-1.269-4.261-1.925c-1.671-0.756-3.65-1.095-5.815-1.615
		c-2.212-0.478-4.611-0.989-7.188-0.952c-2.586,0.004-5.396-0.278-8.187,0.301c-2.8,0.464-5.801,0.779-8.605,1.874
		c-1.428,0.488-2.875,0.936-4.303,1.486c-1.4,0.583-2.744,1.304-4.117,1.974c-2.763,1.333-5.264,3.087-7.677,4.831
		c-2.403,1.75-4.504,3.794-6.492,5.759c-1.866,2.083-3.701,4.072-5.097,6.212c-1.502,2.032-2.726,4.116-3.742,6.076
		c-1.788,3.494-2.895,6.585-3.548,9.012c-11.065-1.874-22.42-2.896-34.021-2.896c-8.622,0-17.1,0.602-25.442,1.65
		c1.146-1.769,2.509-3.843,4.082-6.128c1.118-1.668,2.308-3.447,3.635-5.253c1.209-1.874,2.749-3.645,4.091-5.586
		c1.524-1.82,2.973-3.766,4.583-5.591c1.669-1.773,3.16-3.731,4.994-5.349c0.866-0.859,1.668-1.788,2.558-2.609
		c0.947-0.749,1.824-1.578,2.721-2.375c1.727-1.701,3.705-2.978,5.507-4.459c1.751-1.575,3.78-2.569,5.55-3.878
		c1.759-1.358,3.626-2.301,5.329-3.29c1.723-0.931,3.253-2.164,4.751-2.829c1.498-0.688,2.796-1.438,3.888-2.03
		c2.194-1.204,3.486-2.07,3.486-2.07s-1.409-0.383-3.952-0.742c-1.27-0.17-2.848-0.411-4.648-0.506
		c-1.82-0.21-3.809,0.082-6.04,0.259c-2.23,0.229-4.681,0.483-7.122,1.314c-2.445,0.803-5.208,1.396-7.682,2.81
		c-2.522,1.307-5.276,2.534-7.607,4.445c-1.211,0.898-2.457,1.778-3.643,2.737c-1.148,0.994-2.208,2.095-3.302,3.155
		c-2.217,2.117-4.054,4.546-5.808,6.958c-1.748,2.404-3.115,5.003-4.411,7.479c-1.127,2.567-2.254,5.02-2.929,7.479
		c-0.793,2.42-1.304,4.77-1.673,6.945c-0.63,3.862-0.721,7.146-0.593,9.645c-20.073,2.942-39.199,8.833-56.938,17.205
		c0.546-2.037,1.204-4.427,1.983-7.084c0.551-1.93,1.132-3.99,1.841-6.112c0.567-2.154,1.484-4.314,2.163-6.581
		c0.889-2.203,1.664-4.497,2.635-6.732c1.036-2.201,1.848-4.527,3.092-6.634c0.553-1.081,1.032-2.212,1.625-3.274
		c0.674-1.003,1.253-2.065,1.864-3.097c1.108-2.151,2.6-3.977,3.862-5.941c1.173-2.04,2.8-3.612,4.081-5.4
		c1.251-1.841,2.728-3.306,4.051-4.779c1.354-1.419,2.425-3.064,3.647-4.158c1.209-1.109,2.212-2.231,3.078-3.129
		c1.706-1.82,2.672-3.045,2.672-3.045s-1.463,0.072-3.99,0.511c-1.263,0.231-2.831,0.492-4.569,0.952
		c-1.801,0.364-3.598,1.255-5.673,2.107c-2.051,0.903-4.296,1.902-6.366,3.456c-2.084,1.519-4.518,2.938-6.443,5.045
		c-1.998,2.028-4.24,4.044-5.864,6.581c-0.871,1.23-1.783,2.448-2.613,3.729c-0.784,1.3-1.454,2.677-2.166,4.023
		c-1.456,2.695-2.45,5.573-3.374,8.413c-0.917,2.828-1.419,5.72-1.883,8.473c-0.28,2.795-0.597,5.477-0.476,8.03
		c-0.012,2.541,0.229,4.936,0.553,7.115c0.602,3.895,1.536,7.059,2.438,9.404c-17.947,8.938-34.377,20.446-48.848,34.042
		c-0.109-2.125-0.233-4.658-0.31-7.479c-0.073-2.007-0.154-4.142-0.14-6.384c-0.119-2.226,0.082-4.564,0.03-6.924
		c0.161-2.371,0.187-4.793,0.42-7.222c0.306-2.413,0.359-4.879,0.898-7.264c0.196-1.2,0.296-2.427,0.53-3.612
		c0.332-1.167,0.551-2.348,0.814-3.524c0.39-2.39,1.246-4.588,1.834-6.847c0.493-2.298,1.55-4.298,2.212-6.394
		c0.621-2.133,1.573-3.993,2.375-5.799c0.852-1.767,1.358-3.666,2.184-5.08c0.803-1.428,1.414-2.805,1.956-3.928
		c1.064-2.261,1.601-3.72,1.601-3.72s-1.368,0.518-3.638,1.727c-0.268,0.142-0.593,0.32-0.889,0.479
		c37.854-23.151,82.125-36.494,129.414-36.494C322.883,4.779,379.149,27.202,422.917,64.394z M126.684,44.746
		c-0.789,0.656-1.587,1.377-2.455,2.114c-1.673,1.496-3.498,3.139-4.989,5.255c-1.512,2.089-3.388,4.191-4.564,6.789
		c-1.277,2.541-2.782,5.15-3.542,8.067c-0.448,1.438-0.936,2.882-1.333,4.352c-0.345,1.482-0.555,2.992-0.817,4.492
		c-0.55,3.022-0.606,6.06-0.613,9.042c0,2.973,0.422,5.878,0.833,8.646c0.597,2.744,1.122,5.391,2.03,7.78
		c0.774,2.424,1.741,4.627,2.726,6.599c1.797,3.552,3.68,6.292,5.271,8.249c-14.186,13.885-26.357,29.804-36.021,47.303
		c-0.761-1.972-1.641-4.296-2.572-6.91c-0.688-1.888-1.423-3.89-2.103-6.032c-0.803-2.077-1.335-4.361-2.112-6.594
		c-0.574-2.299-1.3-4.616-1.832-6.992c-0.453-2.389-1.167-4.751-1.391-7.187c-0.187-1.2-0.474-2.399-0.611-3.599
		c-0.047-1.213-0.201-2.403-0.315-3.603c-0.364-2.395-0.233-4.751-0.369-7.076c-0.248-2.34,0.14-4.567,0.124-6.767
		c-0.07-2.222,0.264-4.28,0.469-6.249c0.264-1.942,0.163-3.899,0.506-5.507c0.32-1.605,0.479-3.102,0.646-4.338
		c0.119-0.948,0.196-1.706,0.252-2.348C89.331,72.722,107.105,57.417,126.684,44.746z M9.472,256.867
		c0.469,1.484,0.999,2.987,1.801,4.401c1.305,2.524,2.534,5.278,4.446,7.611c0.898,1.204,1.778,2.446,2.737,3.641
		c0.999,1.148,2.093,2.203,3.155,3.3c2.116,2.217,4.55,4.046,6.958,5.811c2.408,1.745,5.003,3.113,7.479,4.405
		c2.572,1.13,5.024,2.259,7.488,2.927c2.408,0.798,4.761,1.312,6.936,1.676c3.866,0.625,7.141,0.723,9.645,0.597
		c2.942,20.078,8.837,39.194,17.21,56.938c-2.042-0.541-4.437-1.194-7.083-1.979c-1.932-0.551-3.993-1.135-6.119-1.839
		c-2.145-0.569-4.31-1.493-6.576-2.166c-2.198-0.896-4.497-1.661-6.734-2.632c-2.198-1.041-4.524-1.854-6.632-3.1
		c-1.081-0.555-2.212-1.026-3.27-1.624c-1.008-0.677-2.069-1.241-3.101-1.861c-2.151-1.106-3.976-2.604-5.941-3.86
		c-2.04-1.176-3.612-2.8-5.4-4.079c-1.841-1.255-3.307-2.734-4.779-4.056c-1.418-1.354-3.064-2.432-4.158-3.654
		c-0.961-1.036-1.897-1.904-2.723-2.688c-3.552-17.133-5.454-34.887-5.454-53.084C9.358,259.984,9.444,258.43,9.472,256.867z
		 M51.352,403.226c0.266,0.205,0.483,0.443,0.758,0.645c2.094,1.512,4.198,3.388,6.798,4.564c2.537,1.278,5.15,2.776,8.067,3.542
		c1.438,0.448,2.877,0.938,4.352,1.33c1.486,0.346,2.992,0.56,4.495,0.821c3.015,0.551,6.062,0.598,9.044,0.606
		c2.978,0,5.878-0.42,8.646-0.83c2.744-0.598,5.386-1.12,7.78-2.035c2.416-0.766,4.623-1.736,6.597-2.716
		c3.549-1.802,6.289-3.678,8.247-5.274c13.885,14.179,29.804,26.36,47.306,36.021c-1.97,0.761-4.298,1.643-6.912,2.567
		c-1.893,0.69-3.895,1.428-6.03,2.109c-2.074,0.793-4.364,1.335-6.592,2.119c-2.303,0.56-4.62,1.288-6.996,1.829
		c-2.395,0.448-4.751,1.157-7.192,1.382c-1.195,0.187-2.39,0.466-3.594,0.616c-1.214,0.037-2.404,0.205-3.603,0.312
		c-2.394,0.368-4.747,0.237-7.08,0.368c-2.336,0.247-4.562-0.14-6.76-0.121c-2.224,0.065-4.282-0.267-6.247-0.472
		c-1.946-0.266-3.904-0.168-5.512-0.509c-1.605-0.317-3.101-0.476-4.333-0.644c-1.268-0.159-2.28-0.257-2.978-0.309
		C75.175,435.429,62.315,420.028,51.352,403.226z M100.198,458.718c1.841,1.068,3.834,2.193,6.137,2.902
		c2.462,0.794,5.043,1.928,7.871,2.24c2.81,0.43,5.759,1.055,8.765,0.882c1.505-0.014,3.024,0.005,4.555-0.079
		c1.515-0.126,3.015-0.392,4.525-0.606c3.041-0.411,5.95-1.302,8.79-2.222c2.833-0.915,5.465-2.212,7.967-3.458
		c2.422-1.419,4.774-2.735,6.768-4.341c2.058-1.479,3.859-3.085,5.433-4.625c2.8-2.781,4.818-5.404,6.184-7.51
		c17.392,9.139,36.24,15.826,56.117,19.616c-1.631,1.325-3.557,2.875-5.745,4.555c-1.583,1.242-3.265,2.567-5.08,3.869
		c-1.72,1.4-3.736,2.618-5.615,4.056c-2.019,1.251-3.99,2.66-6.083,3.897c-2.138,1.167-4.158,2.576-6.415,3.542
		c-1.08,0.541-2.126,1.186-3.229,1.689c-1.139,0.42-2.224,0.938-3.328,1.419c-2.159,1.092-4.443,1.694-6.618,2.539
		c-2.147,0.957-4.383,1.278-6.471,1.97c-2.093,0.746-4.149,1.073-6.079,1.483c-1.933,0.355-3.767,1.056-5.4,1.224
		c-1.626,0.187-3.097,0.504-4.322,0.723c-2.462,0.472-3.951,0.892-3.951,0.892s1.218,0.803,3.531,1.933
		c1.152,0.551,2.576,1.27,4.259,1.918c1.666,0.761,3.645,1.097,5.824,1.619c2.193,0.477,4.597,0.989,7.178,0.957
		c2.581-0.01,5.386,0.275,8.184-0.304c2.805-0.462,5.801-0.774,8.606-1.876c1.428-0.485,2.877-0.934,4.306-1.484
		c1.4-0.588,2.744-1.307,4.116-1.979c2.761-1.325,5.255-3.08,7.67-4.826c2.409-1.745,4.511-3.789,6.504-5.75
		c1.869-2.095,3.694-4.078,5.094-6.216c1.5-2.044,2.718-4.126,3.738-6.077c1.792-3.49,2.896-6.59,3.549-9.017
		c11.068,1.876,22.425,2.898,34.019,2.898c8.622,0,17.098-0.603,25.438-1.647c-1.144,1.773-2.506,3.846-4.074,6.133
		c-1.12,1.671-2.311,3.449-3.641,5.25c-1.204,1.862-2.744,3.646-4.088,5.587c-1.531,1.815-2.974,3.767-4.579,5.591
		c-1.675,1.769-3.159,3.738-5.008,5.349c-0.858,0.854-1.661,1.787-2.548,2.608c-0.952,0.742-1.825,1.578-2.723,2.376
		c-1.717,1.699-3.706,2.978-5.512,4.462c-1.743,1.577-3.771,2.566-5.542,3.873c-1.759,1.363-3.619,2.306-5.325,3.286
		c-1.729,0.938-3.26,2.165-4.761,2.838c-1.486,0.681-2.791,1.438-3.885,2.025c-2.198,1.204-3.484,2.067-3.484,2.067
		s1.412,0.392,3.958,0.747c1.267,0.163,2.845,0.41,4.642,0.509c1.82,0.205,3.809-0.089,6.039-0.262
		c2.238-0.229,4.679-0.485,7.122-1.307c2.457-0.812,5.208-1.41,7.689-2.819c2.52-1.302,5.273-2.529,7.607-4.442
		c1.203-0.896,2.445-1.778,3.64-2.735c1.148-0.999,2.203-2.096,3.3-3.155c2.217-2.119,4.046-4.555,5.811-6.963
		c1.745-2.408,3.113-5.003,4.405-7.477c1.125-2.572,2.259-5.021,2.922-7.486c0.803-2.408,1.316-4.761,1.681-6.936
		c0.625-3.869,0.723-7.141,0.597-9.646c20.068-2.945,39.194-8.835,56.93-17.207c-0.542,2.039-1.195,4.429-1.979,7.094
		c-0.551,1.923-1.129,3.985-1.839,6.109c-0.569,2.142-1.483,4.308-2.165,6.575c-0.896,2.198-1.662,4.499-2.623,6.735
		c-1.05,2.197-1.853,4.521-3.108,6.632c-0.546,1.073-1.026,2.212-1.614,3.267c-0.682,1.008-1.256,2.072-1.867,3.104
		c-1.102,2.151-2.6,3.977-3.864,5.941c-1.172,2.044-2.791,3.612-4.079,5.399c-1.251,1.844-2.726,3.31-4.047,4.774
		c-1.357,1.424-2.432,3.071-3.654,4.163c-1.204,1.102-2.212,2.231-3.07,3.127c-1.718,1.825-2.68,3.043-2.68,3.043
		s1.466-0.065,3.996-0.514c1.255-0.224,2.832-0.485,4.573-0.942c1.792-0.364,3.594-1.26,5.661-2.109
		c2.059-0.905,4.299-1.904,6.371-3.454c2.09-1.521,4.518-2.94,6.44-5.05c1.997-2.025,4.242-4.046,5.866-6.58
		c0.873-1.228,1.773-2.445,2.613-3.725c0.784-1.302,1.451-2.679,2.17-4.022c1.457-2.698,2.441-5.582,3.37-8.415
		c0.915-2.833,1.419-5.717,1.886-8.48c0.271-2.791,0.588-5.47,0.467-8.018c0.019-2.539-0.225-4.938-0.547-7.122
		c-0.602-3.893-1.535-7.057-2.44-9.399c17.949-8.942,34.378-20.441,48.851-34.042c0.107,2.133,0.233,4.658,0.312,7.481
		c0.074,2.007,0.149,4.14,0.14,6.385c0.117,2.212-0.084,4.56-0.032,6.921c-0.173,2.371-0.187,4.793-0.411,7.216
		c-0.321,2.417-0.364,4.882-0.91,7.271c-0.187,1.185-0.289,2.417-0.522,3.603c-0.336,1.167-0.551,2.353-0.812,3.528
		c-0.388,2.39-1.251,4.583-1.839,6.842c-0.49,2.306-1.541,4.303-2.213,6.398c-0.615,2.133-1.568,3.99-2.371,5.792
		c-0.849,1.773-1.362,3.669-2.193,5.087c-0.793,1.419-1.409,2.801-1.941,3.921c-1.073,2.268-1.614,3.72-1.614,3.72
		s1.381-0.509,3.645-1.723c0.275-0.149,0.606-0.326,0.91-0.494c-37.868,23.158-82.146,36.506-129.443,36.506
		C200.229,518.331,143.966,495.905,100.198,458.718z M396.455,478.347c0.774-0.648,1.567-1.362,2.422-2.1
		c1.685-1.498,3.505-3.137,4.994-5.246c1.512-2.1,3.388-4.2,4.563-6.8c1.274-2.534,2.782-5.147,3.543-8.069
		c0.448-1.438,0.934-2.875,1.335-4.35c0.336-1.484,0.551-2.987,0.821-4.49c0.541-3.02,0.598-6.066,0.606-9.049
		c-0.009-2.978-0.42-5.876-0.84-8.648c-0.598-2.734-1.12-5.386-2.035-7.775c-0.766-2.418-1.727-4.625-2.716-6.6
		c-1.792-3.547-3.678-6.291-5.27-8.251c14.184-13.88,26.355-29.8,36.021-47.296c0.761,1.965,1.647,4.293,2.571,6.907
		c0.691,1.886,1.429,3.892,2.101,6.029c0.803,2.072,1.335,4.364,2.114,6.6c0.564,2.301,1.302,4.611,1.844,6.981
		c0.438,2.399,1.157,4.761,1.381,7.197c0.188,1.194,0.472,2.39,0.607,3.594c0.046,1.213,0.205,2.408,0.317,3.603
		c0.368,2.39,0.233,4.751,0.368,7.075c0.247,2.343-0.14,4.569-0.126,6.768c0.075,2.222-0.261,4.284-0.472,6.244
		c-0.256,1.951-0.158,3.906-0.508,5.517c-0.313,1.597-0.472,3.1-0.635,4.331c-0.122,0.952-0.201,1.709-0.257,2.357
		C433.782,450.373,416.02,465.681,396.455,478.347z"/>
</g>
<g>
</g>
<g>
</g>
<g>
</g>
<g>
</g>
<g>
</g>
<g>
</g>
<g>
</g>
<g>
</g>
<g>
</g>
<g>
</g>
<g>
</g>
<g>
</g>
<g>
</g>
<g>
</g>
<g>
</g>
</svg>
