<svg height="682pt" viewBox="-105 -21 682 682.66669" width="682pt" xmlns="http://www.w3.org/2000/svg"><path d="m230.917969 0c-130.269531 0-236.25 106.292969-236.25 236.953125 0 65.953125 34.148437 150.671875 101.496093 251.804687 50.136719 75.28125 100.617188 132.234376 106.207032 138.476563 7.261718 8.113281 17.667968 12.765625 28.539062 12.765625 10.886719 0 21.289063-4.652344 28.546875-12.765625 5.589844-6.242187 56.074219-63.195313 106.207031-138.476563 67.351563-101.136718 101.496094-185.851562 101.496094-251.804687 0-130.660156-105.976562-236.953125-236.242187-236.953125zm0 409.460938c-97.710938 0-177.203125-79.492188-177.203125-177.199219s79.492187-177.199219 177.203125-177.199219c97.707031 0 177.199219 79.492188 177.199219 177.199219s-79.492188 177.199219-177.199219 177.199219zm0 0"/><path d="m230.917969 92.5625c-77.03125 0-139.703125 62.667969-139.703125 139.699219s62.671875 139.699219 139.703125 139.699219 139.699219-62.667969 139.699219-139.699219-62.667969-139.699219-139.699219-139.699219zm73.164062 189.511719c0 10.355469-8.394531 18.75-18.75 18.75-10.359375 0-18.75-8.394531-18.75-18.75v-28.796875h-71.328125v28.796875c0 10.355469-8.394531 18.75-18.75 18.75-10.359375 0-18.75-8.394531-18.75-18.75v-97.121094c0-10.359375 8.390625-18.75 18.75-18.75 10.355469 0 18.75 8.390625 18.75 18.75v30.824219h71.328125v-30.824219c0-10.359375 8.390625-18.75 18.75-18.75 10.355469 0 18.75 8.390625 18.75 18.75zm0 0"/></svg>