<?xml version="1.0" encoding="iso-8859-1"?>
<!-- Generator: Adobe Illustrator 19.0.0, SVG Export Plug-In . SVG Version: 6.00 Build 0)  -->
<svg version="1.1" id="Layer_1" xmlns="http://www.w3.org/2000/svg" xmlns:xlink="http://www.w3.org/1999/xlink" x="0px" y="0px"
	 viewBox="0 0 512 512" style="enable-background:new 0 0 512 512;" xml:space="preserve">
<g>
	<g>
		<path d="M213.098,299.313c-0.689-2.558-1.702-4.812-3.038-6.76c-1.337-1.947-3.036-3.512-5.098-4.697
			c-2.063-1.184-4.468-1.776-7.218-1.776c-2.826,0-5.252,0.613-7.275,1.833c-2.025,1.223-3.706,2.846-5.041,4.869
			c-1.337,2.025-2.331,4.316-2.978,6.874c-0.65,2.56-0.974,5.175-0.974,7.848c0,2.75,0.324,5.405,0.974,7.962
			c0.648,2.56,1.661,4.832,3.036,6.817c1.374,1.987,3.093,3.591,5.156,4.812c2.062,1.222,4.468,1.833,7.218,1.833
			c2.825,0,5.27-0.63,7.332-1.89c2.063-1.26,3.741-2.902,5.042-4.926c1.298-2.023,2.271-4.334,2.921-6.932
			c0.648-2.596,0.974-5.23,0.974-7.905C214.129,304.525,213.785,301.873,213.098,299.313z"/>
	</g>
</g>
<g>
	<g>
		<path d="M423.423,195.58L299.852,72.009c3.518-6.787,5.519-14.481,5.519-22.638C305.371,22.147,283.223,0,256,0
			c-27.224,0-49.371,22.147-49.371,49.371c0,8.158,2.001,15.852,5.519,22.639L88.578,195.58H11.864V512h488.272V195.58H423.423z
			 M406.942,266.718v61.867h36.891v19.477h-59.231v-81.344H406.942z M256,30c10.681,0,19.37,8.689,19.37,19.371
			c0,10.681-8.689,19.37-19.37,19.37c-10.682,0-19.371-8.689-19.371-19.37C236.629,38.689,245.319,30,256,30z M77.219,266.718H99.56
			v30.017h27.267v-30.017h22.341v81.343h-22.341v-31.85H99.56v31.85H77.219V266.718z M116.986,447.972L95.691,432.5l-21.295,15.472
			l8.134-25.034l-21.295-15.472h26.322l8.134-25.034l8.134,25.034h26.322l-21.295,15.472L116.986,447.972z M197.356,447.972
			L176.061,432.5l-21.295,15.472l8.134-25.034l-21.295-15.472h26.322l8.134-25.034l8.134,25.034h26.322l-21.295,15.472
			L197.356,447.972z M197.63,348.749c-5.806,0-11.095-1.183-15.868-3.552c-4.775-2.366-8.861-5.479-12.259-9.337
			c-3.4-3.856-6.034-8.267-7.905-13.233c-1.872-4.964-2.807-10.082-2.807-15.352c0-5.345,0.974-10.501,2.922-15.467
			c1.947-4.964,4.677-9.337,8.192-13.118c3.512-3.781,7.656-6.797,12.431-9.051c4.772-2.252,10.025-3.379,15.753-3.379
			c5.803,0,11.093,1.185,15.868,3.552c4.772,2.368,8.859,5.499,12.258,9.394c3.398,3.895,6.015,8.326,7.848,13.29
			c1.833,4.966,2.75,10.044,2.75,15.237c0,5.347-0.974,10.483-2.921,15.41c-1.948,4.926-4.64,9.28-8.077,13.061
			s-7.561,6.817-12.373,9.108C208.628,347.603,203.358,348.749,197.63,348.749z M277.295,447.972L256,432.5l-21.295,15.472
			l8.134-25.034l-21.295-15.472h26.322L256,382.432l8.134,25.034h26.322l-21.295,15.472L277.295,447.972z M238.873,286.195v-19.477
			h69.199v19.477H284.7v61.867h-22.34v-61.867H238.873z M357.407,447.972L336.112,432.5l-21.295,15.472l8.134-25.034l-21.295-15.472
			h26.322l8.134-25.034l8.134,25.034h26.323l-21.295,15.472L357.407,447.972z M374.178,348.062h-0.001h-57.971v-81.343h56.94v19.477
			h-34.599v11.457h29.558v18.102h-29.558v12.832h35.631V348.062z M131.004,195.58L233.362,93.222
			c6.787,3.518,14.481,5.519,22.639,5.519c8.157,0,15.852-2.001,22.638-5.519L380.997,195.58H131.004z M437.777,447.972
			L416.481,432.5l-21.295,15.472l8.134-25.034l-21.295-15.472h26.322l8.134-25.034l8.134,25.034h26.323l-21.295,15.472
			L437.777,447.972z"/>
	</g>
</g>
<g>
</g>
<g>
</g>
<g>
</g>
<g>
</g>
<g>
</g>
<g>
</g>
<g>
</g>
<g>
</g>
<g>
</g>
<g>
</g>
<g>
</g>
<g>
</g>
<g>
</g>
<g>
</g>
<g>
</g>
</svg>
