<svg height="512pt" viewBox="-26 0 512 512" width="512pt" xmlns="http://www.w3.org/2000/svg"><path d="m425 340h-25v-42.5625c0-9.617188-7.820312-17.4375-17.4375-17.4375h-75.125c-9.617188 0-17.4375 7.820312-17.4375 17.4375v42.5625h-25c-19.300781 0-35 15.699219-35 35v100c0 19.300781 15.699219 35 35 35h160c19.296875 0 35-15.699219 35-35v-100c0-19.300781-15.699219-35-35-35zm-105-30h50v30h-50zm0 0"/><path d="m95 120c33.085938 0 60-26.914062 60-60s-26.914062-60-60-60-60 26.914062-60 60 26.914062 60 60 60zm0 0"/><path d="m158.132812 124.078125c-16.261718 16.019531-38.558593 25.921875-63.132812 25.921875s-46.871094-9.902344-63.132812-25.921875c-19.539063 17.410156-31.867188 42.75-31.867188 70.921875v122c0 8.285156 6.714844 15 15 15h15v165c0 8.285156 6.714844 15 15 15h100c8.285156 0 15-6.714844 15-15v-165h15c8.285156 0 15-6.714844 15-15v-122c0-28.171875-12.328125-53.511719-31.867188-70.921875zm0 0"/></svg>