<svg height="496pt" viewBox="0 -36 496 495" width="496pt" xmlns="http://www.w3.org/2000/svg"><path d="m488 88.496094h-128.464844l-106.503906-86.214844c-2.933594-2.375-7.128906-2.375-10.0625 0l-106.503906 86.214844h-128.464844c-4.417969 0-8 3.582031-8 8v320c0 4.417968 3.582031 8 8 8h480c4.417969 0 8-3.582032 8-8v-320c0-4.417969-3.582031-8-8-8zm-240-69.703125 86.113281 69.703125h-172.226562zm232 389.703125h-464v-304h100.695312l-17.734374 14.402344c-13.023438-9.621094-31.167969-8.050782-42.34375 3.660156-11.175782 11.710937-11.898438 29.910156-1.679688 42.46875s28.183594 15.554687 41.921875 6.992187c13.742187-8.5625 18.96875-26.007812 12.195313-40.714843l33.074218-26.808594h211.742188l33.074218 26.769531c-6.875 14.785156-1.667968 32.378906 12.148438 41.039063 13.820312 8.664062 31.921875 5.683593 42.234375-6.949219 10.3125-12.632813 9.609375-30.96875-1.644531-42.773438-11.253906-11.800781-29.53125-13.382812-42.644532-3.683593l-17.734374-14.402344h100.695312zm-384-264c.066406 7.097656-4.503906 13.402344-11.265625 15.550781-6.765625 2.144531-14.136719-.375-18.171875-6.210937-4.035156-5.835938-3.789062-13.625.609375-19.195313 4.394531-5.566406 11.910156-7.617187 18.523437-5.046875l-10.726562 8.6875c-2.304688 1.769531-3.46875 4.652344-3.035156 7.527344.429687 2.871094 2.382812 5.289062 5.105468 6.304687 2.722657 1.019531 5.78125.484375 7.992188-1.402343l10.722656-8.671876c.144532.8125.230469 1.632813.246094 2.457032zm314.96875 6.214844c2.210938 1.886718 5.269531 2.421874 7.992188 1.402343 2.722656-1.015625 4.675781-3.433593 5.105468-6.304687.433594-2.875-.730468-5.757813-3.035156-7.527344l-10.726562-8.6875c6.550781-2.496094 13.960937-.4375 18.285156 5.078125 4.328125 5.515625 4.558594 13.207031.570312 18.972656-3.984375 5.765625-11.261718 8.265625-17.949218 6.167969s-11.230469-8.304688-11.210938-15.316406c.015625-.824219.101562-1.644532.246094-2.457032zm0 0"/><path d="m96 312.496094c4.417969 0 8-3.582032 8-8v-40h2.238281l14.175781 42.527344c1.398438 4.199218 5.933594 6.46875 10.128907 5.074218 4.199219-1.398437 6.46875-5.929687 5.074219-10.128906l-12.519532-37.472656h4.902344c4.417969 0 8-3.582032 8-8v-40c0-4.417969-3.582031-8-8-8h-32c-4.417969 0-8 3.582031-8 8v88c0 4.417968 3.582031 8 8 8zm24-64h-16v-24h16zm0 0"/><path d="m368 312.496094h32c4.417969 0 8-3.582032 8-8v-48c0-4.417969-3.582031-8-8-8h-24v-24h16c0 4.417968 3.582031 8 8 8s8-3.582032 8-8v-8c0-4.417969-3.582031-8-8-8h-32c-4.417969 0-8 3.582031-8 8v40c0 4.417968 3.582031 8 8 8h24v32h-16v-8c0-4.417969-3.582031-8-8-8s-8 3.582031-8 8v16c0 4.417968 3.582031 8 8 8zm0 0"/><path d="m288 312.496094c4.417969 0 8-3.582032 8-8v-80h8v48c0 4.417968 3.582031 8 8 8s8-3.582032 8-8v-48h8v80c0 4.417968 3.582031 8 8 8s8-3.582032 8-8v-88c0-4.417969-3.582031-8-8-8h-48c-4.417969 0-8 3.582031-8 8v88c0 4.417968 3.582031 8 8 8zm0 0"/><path d="m160 312.496094h32c4.417969 0 8-3.582032 8-8v-88c0-4.417969-3.582031-8-8-8h-32c-4.417969 0-8 3.582031-8 8v88c0 4.417968 3.582031 8 8 8zm8-88h16v72h-16zm0 0"/><path d="m224 312.496094h32c4.417969 0 8-3.582032 8-8v-88c0-4.417969-3.582031-8-8-8h-32c-4.417969 0-8 3.582031-8 8v88c0 4.417968 3.582031 8 8 8zm8-88h16v72h-16zm0 0"/><path d="m96 344.496094h304c4.417969 0 8-3.582032 8-8 0-4.417969-3.582031-8-8-8h-304c-4.417969 0-8 3.582031-8 8 0 4.417968 3.582031 8 8 8zm0 0"/><path d="m320 352.496094h-224c-4.417969 0-8 3.582031-8 8 0 4.417968 3.582031 8 8 8h224c4.417969 0 8-3.582032 8-8 0-4.417969-3.582031-8-8-8zm0 0"/><path d="m352 352.496094h-8c-4.417969 0-8 3.582031-8 8 0 4.417968 3.582031 8 8 8h8c4.417969 0 8-3.582032 8-8 0-4.417969-3.582031-8-8-8zm0 0"/><path d="m432 384.496094h-64c-4.417969 0-8 3.582031-8 8 0 4.417968 3.582031 8 8 8h64c4.417969 0 8-3.582032 8-8 0-4.417969-3.582031-8-8-8zm0 0"/><path d="m456 400.496094h8c4.417969 0 8-3.582032 8-8 0-4.417969-3.582031-8-8-8h-8c-4.417969 0-8 3.582031-8 8 0 4.417968 3.582031 8 8 8zm0 0"/></svg>