<?xml version="1.0" encoding="iso-8859-1"?>
<!-- Generator: Adobe Illustrator 21.0.0, SVG Export Plug-In . SVG Version: 6.00 Build 0)  -->
<svg xmlns="http://www.w3.org/2000/svg" xmlns:xlink="http://www.w3.org/1999/xlink" version="1.1" id="Capa_1" x="0px" y="0px" viewBox="0 0 511.375 511.375" style="enable-background:new 0 0 511.375 511.375;" xml:space="preserve" width="512" height="512">
<g>
	<path d="M325.354,375.774H27.5c-6.893,0-12.5-5.607-12.5-12.5V148.101c0-6.893,5.607-12.5,12.5-12.5h62.879   c4.142,0,7.5-3.357,7.5-7.5c0-4.143-3.358-7.5-7.5-7.5H27.5c-15.164,0-27.5,12.337-27.5,27.5v215.174   c0,15.163,12.336,27.5,27.5,27.5h297.854c4.142,0,7.5-3.357,7.5-7.5C332.854,379.132,329.496,375.774,325.354,375.774z"/>
	<path d="M483.875,120.601H120.379c-4.142,0-7.5,3.357-7.5,7.5c0,4.143,3.358,7.5,7.5,7.5h277.418v2.5c0,4.143,3.358,7.5,7.5,7.5   c4.142,0,7.5-3.357,7.5-7.5v-2.5h71.078c6.893,0,12.5,5.607,12.5,12.5v215.174c0,6.893-5.607,12.5-12.5,12.5h-71.078v-2.674   c0-4.143-3.358-7.5-7.5-7.5c-4.142,0-7.5,3.357-7.5,7.5v2.674h-42.443c-4.142,0-7.5,3.357-7.5,7.5c0,4.143,3.358,7.5,7.5,7.5   h128.521c15.164,0,27.5-12.337,27.5-27.5V148.101C511.375,132.938,499.039,120.601,483.875,120.601z"/>
	<path d="M397.797,348.101c0,4.143,3.358,7.5,7.5,7.5c4.142,0,7.5-3.357,7.5-7.5v-10c0-4.143-3.358-7.5-7.5-7.5   c-4.142,0-7.5,3.357-7.5,7.5V348.101z"/>
	<path d="M397.797,278.101c0,4.143,3.358,7.5,7.5,7.5c4.142,0,7.5-3.357,7.5-7.5v-10c0-4.143-3.358-7.5-7.5-7.5   c-4.142,0-7.5,3.357-7.5,7.5V278.101z"/>
	<path d="M397.797,243.101c0,4.143,3.358,7.5,7.5,7.5c4.142,0,7.5-3.357,7.5-7.5v-10c0-4.143-3.358-7.5-7.5-7.5   c-4.142,0-7.5,3.357-7.5,7.5V243.101z"/>
	<path d="M397.797,313.101c0,4.143,3.358,7.5,7.5,7.5c4.142,0,7.5-3.357,7.5-7.5v-10c0-4.143-3.358-7.5-7.5-7.5   c-4.142,0-7.5,3.357-7.5,7.5V313.101z"/>
	<path d="M397.797,208.101c0,4.143,3.358,7.5,7.5,7.5c4.142,0,7.5-3.357,7.5-7.5v-10c0-4.143-3.358-7.5-7.5-7.5   c-4.142,0-7.5,3.357-7.5,7.5V208.101z"/>
	<path d="M405.297,180.601c4.142,0,7.5-3.357,7.5-7.5v-10c0-4.143-3.358-7.5-7.5-7.5c-4.142,0-7.5,3.357-7.5,7.5v10   C397.797,177.243,401.155,180.601,405.297,180.601z"/>
	<path d="M296.375,230.745h-28.254l-46.347-54.727c-9.957-11.758-24.505-18.501-39.913-18.501h-8.412   c-5.247,0-8.939,5.51-6.931,10.367l26.003,62.86h-38.023l-17.554-26.531c-6.689-10.108-17.919-16.144-30.04-16.144H92.501   c-5.198,0-8.891,5.417-6.974,10.26l23.456,59.262l-23.456,59.263c-1.917,4.843,1.775,10.26,6.974,10.26h14.404   c12.122,0,23.352-6.035,30.04-16.145l17.554-26.53h38.024l-5.279,12.761c-1.583,3.828,0.236,8.214,4.063,9.798   c3.781,1.563,8.235-0.288,9.797-4.063l7.65-18.495h39.71l-38.137,45.032c-6.484,7.656-15.697,12.332-25.615,13.087l4.93-11.917   c1.584-3.828-0.236-8.214-4.063-9.798c-3.827-1.584-8.213,0.235-9.797,4.063l-9.264,22.393c-2.008,4.857,1.684,10.367,6.931,10.367   h8.412c15.408,0,29.956-6.743,39.913-18.502l46.346-54.726h28.254c18.046,0,34.869-8.076,46.155-22.157   c2.197-2.741,2.197-6.641,0-9.382C331.243,238.82,314.42,230.745,296.375,230.745z M184.713,172.626   c9.918,0.755,19.131,5.431,25.615,13.086l38.137,45.033h-39.71L184.713,172.626z M296.375,269.439h-92.646   c-0.025,0-0.049,0-0.074,0h-53.187c-2.517,0-4.866,1.263-6.255,3.361l-19.778,29.892c-3.903,5.899-10.457,9.422-17.53,9.422h-3.369   l20.488-51.763c0.702-1.772,0.702-3.747,0-5.52l-20.488-51.762h3.369c7.074,0,13.627,3.521,17.53,9.421l19.778,29.893   c1.389,2.099,3.738,3.361,6.255,3.361h53.25c0.009,0,0.018,0.002,0.026,0.002c0.014,0,0.027-0.002,0.04-0.002h92.59   c11.316,0,21.988,4.254,30.107,11.847C318.363,265.185,307.691,269.439,296.375,269.439z"/>
</g>















</svg>
