<?xml version="1.0" encoding="utf-8"?>
<!-- Generated by IcoMoon.io -->
<!DOCTYPE svg PUBLIC "-//W3C//DTD SVG 1.1//EN" "http://www.w3.org/Graphics/SVG/1.1/DTD/svg11.dtd">
<svg version="1.1" xmlns="http://www.w3.org/2000/svg" xmlns:xlink="http://www.w3.org/1999/xlink" width="16" height="16" viewBox="0 0 16 16">
<path fill="#444444" d="M7 0h1v1h-1v-1z"></path>
<path fill="#444444" d="M7 14h1v1h-1v-1z"></path>
<path fill="#444444" d="M14 7h1v1h-1v-1z"></path>
<path fill="#444444" d="M0 7h1v1h-1v-1z"></path>
<path fill="#444444" d="M12.379 1.843l0.707 0.707-0.707 0.707-0.707-0.707 0.707-0.707z"></path>
<path fill="#444444" d="M2.621 11.742l0.707 0.707-0.707 0.707-0.707-0.707 0.707-0.707z"></path>
<path fill="#444444" d="M13.227 12.45l-0.707 0.707-0.707-0.707 0.707-0.707 0.707 0.707z"></path>
<path fill="#444444" d="M3.187 2.55l-0.707 0.707-0.707-0.707 0.707-0.707 0.707 0.707z"></path>
<path fill="#444444" d="M4.136 0.74l0.924-0.383 0.383 0.924-0.924 0.383-0.383-0.924z"></path>
<path fill="#444444" d="M9.558 13.719l0.924-0.383 0.383 0.924-0.924 0.383-0.383-0.924z"></path>
<path fill="#444444" d="M14.27 4.19l0.383 0.924-0.924 0.383-0.383-0.924 0.924-0.383z"></path>
<path fill="#444444" d="M1.271 9.503l0.383 0.924-0.924 0.383-0.383-0.924 0.924-0.383z"></path>
<path fill="#444444" d="M9.941 0.358l0.924 0.383-0.383 0.924-0.924-0.383 0.383-0.924z"></path>
<path fill="#444444" d="M4.518 13.336l0.924 0.383-0.383 0.924-0.924-0.383 0.383-0.924z"></path>
<path fill="#444444" d="M14.588 9.931l-0.383 0.924-0.924-0.383 0.383-0.924 0.924 0.383z"></path>
<path fill="#444444" d="M1.718 4.528l-0.383 0.924-0.924-0.383 0.383-0.924 0.924 0.383z"></path>
<path fill="#444444" d="M11.7 4l-3.5 3.5-0.7-0.7 3.5-3.5c-1-0.8-2.2-1.3-3.5-1.3-3 0-5.5 2.5-5.5 5.5s2.5 5.5 5.5 5.5 5.5-2.5 5.5-5.5c0-1.3-0.5-2.5-1.3-3.5z"></path>
</svg>
