<?xml version="1.0" encoding="utf-8"?>
<!-- Generated by IcoMoon.io -->
<!DOCTYPE svg PUBLIC "-//W3C//DTD SVG 1.1//EN" "http://www.w3.org/Graphics/SVG/1.1/DTD/svg11.dtd">
<svg version="1.1" xmlns="http://www.w3.org/2000/svg" xmlns:xlink="http://www.w3.org/1999/xlink" width="16" height="16" viewBox="0 0 16 16">
<path fill="#444444" d="M11.2 2h-6.4c-2.6 0-4.8 2.2-4.8 4.8v6c0 1.2 1 2.2 2.2 2.2h0.2c0.9 0 1.8-0.6 2.1-1.5s1.1-1.5 2.1-1.5h2.8c0.9 0 1.8 0.6 2.1 1.5s1.1 1.5 2.1 1.5h0.2c1.2 0 2.2-1 2.2-2.2v-6c0-2.6-2.2-4.8-4.8-4.8zM7 9h-2v2h-2v-2h-2v-2h2v-2h2v2h2v2zM10.5 10c-0.8 0-1.5-0.7-1.5-1.5s0.7-1.5 1.5-1.5c0.8 0 1.5 0.7 1.5 1.5s-0.7 1.5-1.5 1.5zM13.5 8c-0.8 0-1.5-0.7-1.5-1.5s0.7-1.5 1.5-1.5c0.8 0 1.5 0.7 1.5 1.5s-0.7 1.5-1.5 1.5z"></path>
</svg>
