<?xml version="1.0" encoding="utf-8"?>
<!-- Generated by IcoMoon.io -->
<!DOCTYPE svg PUBLIC "-//W3C//DTD SVG 1.1//EN" "http://www.w3.org/Graphics/SVG/1.1/DTD/svg11.dtd">
<svg version="1.1" xmlns="http://www.w3.org/2000/svg" xmlns:xlink="http://www.w3.org/1999/xlink" width="16" height="16" viewBox="0 0 16 16">
<path fill="#444444" d="M8 1.1v-1.1h-1v1.1c-6.2 0.4-7 6.9-7 6.9h0.1c0.2 0 1.2-1 2.4-1s2.2 1 2.4 1h0.1c0.3 0 1-0.7 2-0.9v6.9c0 0.7 0.2 1.2 0.6 1.6 0.3 0.3 0.7 0.4 0.9 0.4 0 0 0.1 0 0.1 0 0.2 0 0.5 0 0.8-0.3 0.4-0.3 0.6-0.9 0.6-1.7h-1c0 0 0 1-0.5 1s-0.5-1-0.5-1v-6.9c1 0.2 1.7 0.9 1.9 0.9h0.1c0.2 0 1.2-1 2.4-1s2.2 1 2.4 1h0.2c0 0-0.7-6.6-7-6.9z"></path>
</svg>
