<?xml version="1.0" encoding="utf-8"?>
<!-- Generated by IcoMoon.io -->
<!DOCTYPE svg PUBLIC "-//W3C//DTD SVG 1.1//EN" "http://www.w3.org/Graphics/SVG/1.1/DTD/svg11.dtd">
<svg version="1.1" xmlns="http://www.w3.org/2000/svg" xmlns:xlink="http://www.w3.org/1999/xlink" width="16" height="16" viewBox="0 0 16 16">
<path fill="#444444" d="M7 0h1v4h-1v-4z"></path>
<path fill="#444444" d="M7 12h1v4h-1v-4z"></path>
<path fill="#444444" d="M7 9h-4c-0.6 0-1-0.4-1-1s0.4-1 1-1h4v-2h-4c-1.7 0-3 1.3-3 3s1.3 3 3 3h4v-2z"></path>
<path fill="#444444" d="M12 5h-4v2h4c0.6 0 1 0.4 1 1s-0.4 1-1 1h-4v2h4c1.7 0 3-1.3 3-3s-1.3-3-3-3z"></path>
<path fill="#444444" d="M3.5 15.4l2.5-3.4h-1.2l-2.1 2.9z"></path>
<path fill="#444444" d="M11.5 15.4l-2.5-3.4h1.2l2.1 2.9z"></path>
<path fill="#444444" d="M11.5 1l-2.5 3h1.2l2.1-2.7z"></path>
<path fill="#444444" d="M3.5 1l2.5 3h-1.2l-2.1-2.7z"></path>
</svg>
