<?xml version="1.0" encoding="utf-8"?>
<!-- Generated by IcoMoon.io -->
<!DOCTYPE svg PUBLIC "-//W3C//DTD SVG 1.1//EN" "http://www.w3.org/Graphics/SVG/1.1/DTD/svg11.dtd">
<svg version="1.1" xmlns="http://www.w3.org/2000/svg" xmlns:xlink="http://www.w3.org/1999/xlink" width="16" height="16" viewBox="0 0 16 16">
<path fill="#444444" d="M12 8v-2.1c1.3-0.4 2-1.9 2-3.4 0-0.3-0.2-0.5-0.5-0.5s-0.5 0.2-0.5 0.5c0 1-0.5 2.5-1.8 2.5h-0.2c0 0 0.2-2.1-2-2.8v-1.7c0-0.3-0.2-0.5-0.5-0.5s-0.5 0.2-0.5 0.5v1.5c-0.2 0-0.3 0-0.5 0s-0.3 0-0.5 0v-1.5c0-0.3-0.2-0.5-0.5-0.5s-0.5 0.2-0.5 0.5v1.7c-2.2 0.7-2 2.8-2 2.8h-0.2c-1.3 0-1.8-1.5-1.8-2.5 0-0.3-0.2-0.5-0.5-0.5s-0.5 0.2-0.5 0.5c0 1.4 0.7 2.9 2 3.4v2.1c-2.8 0.1-3 1.4-3 3.5 0 0.2 0.2 0.5 0.5 0.5s0.5-0.3 0.5-0.5c0-1.8 0-2.4 2-2.5 0 0 0 1.6 0.6 3.1-0.4 0.1-0.7 0.2-0.9 0.5-0.7 0.6-0.7 1.7-0.7 2.7v0.1c0 0.3 0.2 0.6 0.5 0.6s0.5-0.3 0.5-0.5v-0.1c0-0.8 0-1.7 0.4-2.1 0.1-0.2 0.4-0.3 0.7-0.3 0.7 1.1 1.7 2 3.4 2s2.8-0.9 3.4-2c0.3 0 0.5 0.1 0.7 0.2 0.4 0.4 0.4 1.2 0.4 2.1v0.1c0 0.3 0.2 0.5 0.5 0.5s0.5-0.2 0.5-0.5v-0.1c0-1 0-2.1-0.7-2.8-0.2-0.2-0.6-0.4-0.9-0.5 0.6-1.4 0.6-2.9 0.6-3 2 0 2 0.7 2 2.5 0 0.3 0.2 0.5 0.5 0.5s0.5-0.2 0.5-0.5c0-2.1-0.2-3.4-3-3.5zM7 14c-3-0.4-3-4.8-3-5v-3h3v8zM7 4h-1v-1h1v1zM8 3h1v1h-1v-1zM8 14v-8h3v3c0 0.2 0 4.5-3 5z"></path>
</svg>
