<?xml version="1.0" encoding="utf-8"?>
<!-- Generated by IcoMoon.io -->
<!DOCTYPE svg PUBLIC "-//W3C//DTD SVG 1.1//EN" "http://www.w3.org/Graphics/SVG/1.1/DTD/svg11.dtd">
<svg version="1.1" xmlns="http://www.w3.org/2000/svg" xmlns:xlink="http://www.w3.org/1999/xlink" width="16" height="16" viewBox="0 0 16 16">
<path fill="#444444" d="M9.5 2c0 1.105-0.895 2-2 2s-2-0.895-2-2c0-1.105 0.895-2 2-2s2 0.895 2 2z"></path>
<path fill="#444444" d="M13.8 1.2c-0.3-0.3-0.7-0.3-1 0l-2.3 2.4c-0.3 0.3-0.6 0.4-0.9 0.4h-4.2c-0.3 0-0.6-0.1-0.8-0.4l-2.4-2.3c-0.2-0.3-0.7-0.3-1-0.1-0.3 0.3-0.3 0.8 0 1l3.3 3.3c0 0.1 0.5 0.6 0.5 1.5v9h2v-6h1v6h2v-9c0-0.9 0.5-1.4 0.5-1.4l3.3-3.3c0.3-0.3 0.3-0.8 0-1.1z"></path>
</svg>
