<?xml version="1.0" encoding="utf-8"?>
<!-- Generated by IcoMoon.io -->
<!DOCTYPE svg PUBLIC "-//W3C//DTD SVG 1.1//EN" "http://www.w3.org/Graphics/SVG/1.1/DTD/svg11.dtd">
<svg version="1.1" xmlns="http://www.w3.org/2000/svg" xmlns:xlink="http://www.w3.org/1999/xlink" width="16" height="16" viewBox="0 0 16 16">
<path fill="#444444" d="M2 1v1h-0.5c-0.3 0-0.5 0.2-0.5 0.5v0c0 0.3 0.2 0.5 0.5 0.5h0.5v1h-0.5c-0.3 0-0.5 0.2-0.5 0.5v0c0 0.3 0.2 0.5 0.5 0.5h0.5v1h-0.5c-0.3 0-0.5 0.2-0.5 0.5v0c0 0.3 0.2 0.5 0.5 0.5h0.5v1h-0.5c-0.3 0-0.5 0.2-0.5 0.5v0c0 0.3 0.2 0.5 0.5 0.5h0.5v1h-0.5c-0.3 0-0.5 0.2-0.5 0.5v0c0 0.3 0.2 0.5 0.5 0.5h0.5v1h-0.5c-0.3 0-0.5 0.2-0.5 0.5v0c0 0.3 0.2 0.5 0.5 0.5h0.5v1h-0.5c-0.3 0-0.5 0.2-0.5 0.5v0c0 0.3 0.2 0.5 0.5 0.5h0.5v1h12v-15h-12zM3.5 15c-0.3 0-0.5-0.2-0.5-0.5s0.2-0.5 0.5-0.5 0.5 0.2 0.5 0.5c0 0.3-0.2 0.5-0.5 0.5zM3.5 13c-0.3 0-0.5-0.2-0.5-0.5s0.2-0.5 0.5-0.5 0.5 0.2 0.5 0.5c0 0.3-0.2 0.5-0.5 0.5zM3.5 11c-0.3 0-0.5-0.2-0.5-0.5s0.2-0.5 0.5-0.5 0.5 0.2 0.5 0.5c0 0.3-0.2 0.5-0.5 0.5zM3.5 9c-0.3 0-0.5-0.2-0.5-0.5s0.2-0.5 0.5-0.5 0.5 0.2 0.5 0.5c0 0.3-0.2 0.5-0.5 0.5zM3.5 7c-0.3 0-0.5-0.2-0.5-0.5s0.2-0.5 0.5-0.5 0.5 0.2 0.5 0.5c0 0.3-0.2 0.5-0.5 0.5zM3.5 5c-0.3 0-0.5-0.2-0.5-0.5s0.2-0.5 0.5-0.5 0.5 0.2 0.5 0.5c0 0.3-0.2 0.5-0.5 0.5zM3.5 3c-0.3 0-0.5-0.2-0.5-0.5s0.2-0.5 0.5-0.5 0.5 0.2 0.5 0.5c0 0.3-0.2 0.5-0.5 0.5zM12 7h-6v-3h6v3z"></path>
</svg>
