<?xml version="1.0" encoding="utf-8"?>
<!-- Generated by IcoMoon.io -->
<!DOCTYPE svg PUBLIC "-//W3C//DTD SVG 1.1//EN" "http://www.w3.org/Graphics/SVG/1.1/DTD/svg11.dtd">
<svg version="1.1" xmlns="http://www.w3.org/2000/svg" xmlns:xlink="http://www.w3.org/1999/xlink" width="16" height="16" viewBox="0 0 16 16">
<path fill="#444444" d="M1 11h5v5h-5v-5z"></path>
<path fill="#444444" d="M11 11h5v5h-5v-5z"></path>
<path fill="#444444" d="M9.7 9.4l-0.7 0.6h2v-1.8l-0.6 0.5c0 0-0.6-0.5-0.9-1s-0.5-1.1-0.5-1.7h3v-6h-7v6h3c0 0.6-0.2 1.2-0.5 1.7s-0.9 1-0.9 1l-0.6-0.5v1.8h2l-0.7-0.6c0 0 0.6-0.5 1-1.2 0.1-0.1 0.1-0.2 0.2-0.3 0.1 0.1 0.1 0.2 0.2 0.3 0.4 0.7 1 1.2 1 1.2z"></path>
</svg>
