<?xml version="1.0" encoding="utf-8"?>
<!-- Generator: Adobe Illustrator 23.0.1, SVG Export Plug-In . SVG Version: 6.00 Build 0)  -->
<svg version="1.1" id="Слой_1" xmlns="http://www.w3.org/2000/svg" xmlns:xlink="http://www.w3.org/1999/xlink" x="0px" y="0px"
	 viewBox="0 0 1088.9 405.5" style="enable-background:new 0 0 1088.9 405.5;" xml:space="preserve">
<style type="text/css">
	.st0{fill:#F67B00;}
	.st1{fill:#FFFFFF;}
	.st2{opacity:0.12;enable-background:new    ;}
</style>
<path class="st0" d="M766.9,18.5C735.2,18,707.3,10.8,690.2,0h-0.1c-40.8,42.7-89.5,79.3-144.2,107.6c-12,6.2-24.4,12-36.9,17.4
	c-6.9,3-14,5.8-21.1,8.5c-7.2,2.8-14.6,5.4-22,7.9c-33,11.1-68.5,17.8-104.2,22.7c23.6,1.1,48.6,2.5,73,0.9
	c13.8-0.9,27.6-2.2,41.6-4c14.8-1.9,29.5-4.2,44-7.1c11.7-2.3,23.2-4.8,34.6-7.7c15.5-3.9,30.7-8.3,45.7-13.2c1.5-0.5,3.1-1,4.6-1.5
	c78.9-26.6,149.5-67.2,207.7-117.6C799.3,17.1,783.6,18.7,766.9,18.5z"/>
<path class="st1" d="M820.8,100.9c-0.9,0.6-1.9,1.2-2.8,1.9c-1.1,0.7-2.1,1.4-3.2,2c-1.1,0.7-2.1,1.4-3.2,2.1
	c-1.1,0.7-2.1,1.3-3.2,2c-0.9,0.5-1.7,1.1-2.6,1.6c-1.1,0.7-2.1,1.3-3.2,1.9c-2.2,1.3-4.3,2.6-6.5,3.8c-0.2,0.1-0.5,0.3-0.7,0.4
	c-0.3,0.2-0.7,0.4-1,0.6c-0.3,0.2-0.6,0.3-0.8,0.5c-0.4,0.2-0.7,0.4-1.1,0.6c-1.2,0.7-2.5,1.4-3.7,2.1c-0.3,0.2-0.6,0.3-0.9,0.5
	c-0.2,0.1-0.4,0.2-0.6,0.3c-0.7,0.4-1.5,0.8-2.2,1.2c-0.3,0.2-0.6,0.3-0.9,0.5c-0.4,0.2-0.9,0.5-1.3,0.7s-0.9,0.5-1.3,0.7
	c-0.3,0.2-0.6,0.3-0.8,0.4c-0.2,0.1-0.4,0.2-0.6,0.3c-0.5,0.3-0.9,0.5-1.4,0.7c-0.4,0.2-0.8,0.4-1.2,0.6c-0.6,0.3-1.1,0.6-1.6,0.8
	c-0.4,0.2-0.9,0.5-1.3,0.7c-0.3,0.2-0.7,0.3-1,0.5c-0.6,0.3-1.2,0.6-1.8,0.9c-1.4,0.7-2.8,1.4-4.2,2.1c-1.4,0.7-2.8,1.4-4.3,2.1
	c-0.7,0.3-1.3,0.6-2,0.9c-1,0.5-2.1,1-3.1,1.5c-0.3,0.2-0.7,0.3-1,0.5c-1.4,0.6-2.8,1.3-4.2,1.9c-1.4,0.6-2.8,1.3-4.3,1.9
	c-1.4,0.6-2.8,1.3-4.2,1.9c-1.9,0.8-3.9,1.7-5.8,2.5c-1.9,0.8-3.9,1.6-5.9,2.4c-0.3,0.1-0.6,0.2-0.9,0.3c-0.6,0.2-1.1,0.5-1.7,0.7
	c-1,0.4-1.9,0.8-2.9,1.1c-1.3,0.5-2.6,1-3.9,1.5c-0.6,0.2-1.3,0.5-1.9,0.7l-1,0.4c-2.4,0.9-4.8,1.8-7.2,2.7
	c-0.4,0.2-0.8,0.3-1.3,0.4c-0.6,0.2-1.1,0.4-1.7,0.6c-1.5,0.5-3,1.1-4.6,1.6c-0.4,0.2-0.9,0.3-1.3,0.5c-2,0.7-4,1.3-6,2
	c-1.6,0.5-3.2,1.1-4.8,1.6c-0.8,0.3-1.6,0.5-2.4,0.8c-0.8,0.3-1.6,0.5-2.4,0.8c-1.2,0.4-2.4,0.8-3.6,1.1c-2.1,0.7-4.2,1.3-6.4,1.9
	c-0.1,0-0.3,0.1-0.4,0.1c-0.8,0.2-1.5,0.4-2.3,0.7c-0.1,0-0.1,0-0.2,0.1h-0.1c-0.5,0.2-1,0.3-1.6,0.5l-0.9,0.3
	c-0.9,0.3-1.8,0.5-2.8,0.8c-2.4,0.7-4.9,1.3-7.3,2c-2.1,0.6-4.3,1.1-6.4,1.7c-0.8,0.2-1.7,0.4-2.5,0.6c-0.6,0.1-1.1,0.3-1.7,0.4
	c-0.3,0.1-0.6,0.1-0.9,0.2c-0.5,0.1-1.1,0.3-1.6,0.4c-0.3,0.1-0.5,0.1-0.8,0.2c-1.3,0.3-2.5,0.6-3.8,0.9c-1.3,0.3-2.5,0.6-3.8,0.9
	c-1,0.2-2.1,0.5-3.1,0.7c-0.1,0-0.2,0-0.3,0.1c-0.1,0-0.2,0-0.3,0.1H638c-0.6,0.1-1.3,0.3-1.9,0.4c-0.7,0.1-1.3,0.3-1.9,0.4
	c-1.3,0.3-2.6,0.6-3.9,0.8c-1,0.2-2,0.4-3,0.6c-0.3,0.1-0.5,0.1-0.8,0.2c-0.3,0.1-0.7,0.1-1,0.2c-0.5,0.1-1,0.2-1.5,0.3
	s-1.1,0.2-1.6,0.3s-1.1,0.2-1.6,0.3c-0.1,0-0.2,0-0.3,0s-0.2,0-0.4,0.1c-0.8,0.2-1.6,0.3-2.4,0.5c-0.2,0-0.4,0.1-0.6,0.1
	c-1,0.2-2,0.4-2.9,0.6c-1.1,0.2-2.1,0.4-3.2,0.6c-1.7,0.3-3.4,0.6-5.1,0.9c-0.5,0.1-1,0.2-1.5,0.3s-1,0.2-1.6,0.3
	c-0.3,0-0.5,0.1-0.8,0.1c-1.3,0.2-2.6,0.4-3.8,0.6c-0.8,0.1-1.6,0.3-2.5,0.4c-0.6,0.1-1.2,0.2-1.9,0.3c-0.6,0.1-1.3,0.2-1.9,0.3
	c-0.6,0.1-1.3,0.2-1.9,0.3c-1,0.2-2.1,0.3-3.1,0.5c-0.3,0-0.7,0.1-1,0.2c-0.8,0.1-1.7,0.2-2.5,0.4c-0.6,0.1-1.2,0.2-1.9,0.2
	c-0.6,0.1-1.2,0.2-1.9,0.3c-0.2,0-0.3,0-0.5,0.1c-1.4,0.2-2.8,0.4-4.3,0.6c-1.2,0.2-2.4,0.3-3.6,0.5c-1.7,0.2-3.3,0.4-5,0.6
	c-1.2,0.1-2.5,0.3-3.7,0.4c-1.7,0.2-3.3,0.4-5,0.5c-0.5,0.1-1,0.1-1.5,0.1c-1,0.1-1.9,0.2-2.9,0.3c-1.2,0.1-2.5,0.2-3.7,0.4
	c-1,0.1-2.1,0.2-3.1,0.3s-2.1,0.2-3.1,0.3c-0.8,0.1-1.7,0.1-2.5,0.2c-0.8,0.1-1.7,0.1-2.5,0.2c-0.3,0-0.6,0.1-0.9,0.1
	c-0.9,0.1-1.9,0.2-2.8,0.2c-1.5,0.1-3.1,0.2-4.6,0.3s-3.1,0.2-4.6,0.3c-2.1,0.1-4.2,0.2-6.3,0.4c-0.5,0-1.1,0.1-1.6,0.1
	c-4.6,0.2-9.2,0.4-13.9,0.5c-1.5,0.1-3.1,0.1-4.6,0.2c-1.6,0-3.1,0.1-4.7,0.1c-0.7,0-1.4,0-2,0c-1.4,0-2.7,0-4.1,0.1
	c-0.7,0-1.3,0-1.9,0c-0.8,0-1.6,0-2.5,0c-1.2,0-2.5,0-3.7,0c-2.1,0-4.1,0-6.2,0c-0.7,0-1.3,0-2,0c-2.1,0-4.1,0-6.2-0.1
	c-56.6-0.9-110.9-5.8-161.2-14.2c-7.2-1.2-14.3-2.5-21.3-3.8l0,0c-2.4-0.5-4.8-0.9-7.2-1.4c-1.2-0.3-2.5-0.5-3.7-0.8
	c-1.8-0.4-3.6-0.7-5.5-1.1c-0.9-0.2-1.8-0.4-2.7-0.6c-2.4-0.5-4.9-1-7.3-1.6c-3.6-0.8-7.1-1.6-10.7-2.4c-0.1,0-0.1,0-0.1,0l0,0l0,0
	c-2.1-0.5-4.2-1-6.3-1.5c-0.3-0.1-0.6-0.2-0.9-0.2c-0.5-0.1-1.1-0.3-1.6-0.4c-0.5-0.1-1.1-0.3-1.6-0.4c-2-0.5-4-1-6.1-1.5
	c-0.1,0-0.2,0-0.2-0.1c-0.1,0-0.2-0.1-0.3-0.1c-0.4-0.1-0.9-0.2-1.3-0.3c-0.5-0.1-1-0.3-1.6-0.4c-0.2,0-0.3-0.1-0.5-0.1
	c-0.4-0.1-0.7-0.2-1.1-0.3c-0.2,0-0.3-0.1-0.5-0.1c-0.5-0.1-1-0.2-1.4-0.4c-0.1,0-0.2,0-0.3-0.1c-0.3-0.1-0.5-0.1-0.8-0.2
	c-0.2,0-0.4-0.1-0.6-0.2c-0.1,0-0.2-0.1-0.3-0.1c-0.3-0.1-0.7-0.2-1-0.3c-0.2-0.1-0.4-0.1-0.6-0.2c-0.1,0-0.3-0.1-0.4-0.1
	c-0.4-0.1-0.8-0.2-1.2-0.3c-0.8-0.2-1.6-0.4-2.5-0.7c-8.2-2.3-16.4-4.7-24.5-7.3c-1-0.3-2.1-0.7-3.1-1c-0.9-0.3-1.8-0.6-2.8-0.9
	c-0.1,0-0.1,0-0.2-0.1c-0.4-0.1-0.8-0.3-1.2-0.4c-0.6-0.2-1.3-0.4-1.9-0.6c-1.1-0.4-2.2-0.8-3.3-1.1c-1.7-0.6-3.4-1.2-5.1-1.8
	c-2.8-1-5.5-2-8.2-3c-1.4-0.5-2.7-1-4.1-1.5c-2.7-1-5.4-2.1-8.1-3.1c-1-0.4-2-0.8-3.1-1.2l0,0c-1.6-0.7-3.3-1.3-4.9-2
	c-1.3-0.5-2.6-1.1-4-1.6c-3.9-1.7-7.8-3.3-11.7-5.1l0,0c-2.6-1.2-5.1-2.3-7.6-3.5l0,0c-2.5-1.2-5-2.4-7.5-3.6l0,0
	c-2.5-1.2-4.9-2.4-7.4-3.6c-1.2-0.6-2.4-1.2-3.7-1.8c-3.6-1.8-7.2-3.7-10.7-5.6c-2.3-1.3-4.7-2.5-7-3.8s-4.5-2.6-6.8-3.9l0,0
	c-2.2-1.3-4.4-2.6-6.6-3.9c-2.2-1.3-4.3-2.6-6.4-4c-3.2-2-6.3-4-9.3-6c-12.3-8.1-23.4-16.5-33-24.9c-4.6-4.1-9-8.1-12.9-12.2l0,0
	c-0.7-0.7-1.3-1.4-2-2.1c-2-2.1-3.8-4.1-5.6-6.2l0,0l0,0l0,0l0,0c14-8,29.9-14.9,47.1-20.3c14.3-4.5,28.5-7.6,42.1-9.4h0.1
	c3.3-0.4,6.5-0.8,9.7-1.1c2.3-0.1,4.6-0.2,7-0.1c2.7,0,5.4,0.2,8.1,0.5l0,0c5,0.5,9.8,1.4,14.5,2.6c0.1,0,0.1,0,0.1,0
	c1.2,0.3,2.4,0.7,3.7,1.1c15.5,4.5,36.1,12,59.6,20.9c39.7,15.1,87.5,34.5,132.2,51.5c14.2,5.4,28,10.5,41.2,15.2
	c7.7,2.8,15.2,5.3,22.3,7.7c11.1,3.7,21.5,6.9,30.9,9.5c3.9,1.1,7.7,2.1,11.2,2.9c0.1,0,0.1,0,0.2,0c5.7,1.3,10.9,2.4,15.5,3.1
	c0.1,0,0.1,0,0.1,0s-4.1,1.5-12,3.5c-19.5,5-62.5,13.1-124.8,9.6c-14.9-1.2-29.7-2.7-44.3-4.7l0,0l0,0c-2.6-0.4-5.2-0.7-7.8-1.1
	c-0.2,0-0.4-0.1-0.6-0.1c-19.2-2.9-38.7-7-58.2-12c-7.9-2-15.9-4.2-23.8-6.5c-47.9-14-95-32.8-135.8-52.6c-0.5-0.2-1-0.5-1.4-0.7
	c-0.9-0.4-1.7-0.8-2.6-1.3c-0.3-0.1-0.6-0.3-0.8-0.4c-2.5-1.2-4.9-2.4-7-3.5c-0.6-0.3-1.2-0.6-1.8-0.9c-0.3-0.2-0.6-0.3-0.9-0.4
	c-0.4-0.2-0.8-0.4-1.2-0.6c-0.4-0.2-0.8-0.4-1.1-0.6c-0.2-0.1-0.3-0.2-0.5-0.3c0.6,0.6,1.2,1.1,1.8,1.7c0.4,0.4,0.9,0.8,1.3,1.2
	c0.8,0.7,1.6,1.4,2.5,2.2l0,0c0.5,0.4,1,0.8,1.5,1.3l0,0c0.5,0.4,1,0.9,1.5,1.3c1,0.9,2,1.7,3.1,2.6l0,0c2.8,2.3,5.8,4.5,8.8,6.8
	l0,0c1.5,1.1,3.1,2.3,4.7,3.4c3.6,2.6,7.3,5.1,11.2,7.7c1.9,1.3,3.9,2.6,5.9,3.8c2,1.3,4,2.5,6.1,3.8l0,0c1.5,0.9,3.1,1.9,4.6,2.8
	c0.8,0.5,1.6,1,2.5,1.5l0,0c0.8,0.4,1.5,0.9,2.3,1.3c0.6,0.3,1.2,0.7,1.7,1c1,0.6,2.1,1.2,3.1,1.8c1.3,0.7,2.5,1.4,3.8,2.1
	c1.3,0.7,2.5,1.4,3.8,2.1c0.3,0.2,0.6,0.3,0.9,0.5c0.2,0.1,0.5,0.3,0.7,0.4c1.1,0.6,2.3,1.2,3.4,1.8l0,0c1.8,1,3.6,1.9,5.4,2.8
	c0.5,0.2,0.9,0.5,1.4,0.7l0,0c1.1,0.6,2.3,1.2,3.5,1.8c1.1,0.6,2.3,1.2,3.5,1.7c3.4,1.7,6.9,3.4,10.4,5l0,0c1.2,0.6,2.3,1.1,3.5,1.7
	c1.7,0.8,3.4,1.6,5.1,2.4c3.2,1.5,6.5,2.9,9.8,4.4c1.7,0.7,3.3,1.4,5,2.1l0,0c3.3,1.4,6.7,2.8,10,4.1c4.8,1.9,9.6,3.8,14.4,5.6l0,0
	l10.6,3.8c1.8,0.6,3.5,1.2,5.3,1.8s3.5,1.2,5.3,1.8l0,0l1.5,0.5l5.6,1.8c2.4,0.8,4.8,1.5,7.1,2.2l7.2,2.1c2.5,0.7,5,1.4,7.5,2.1
	c12.6,3.5,25.7,6.7,39,9.7c1.3,0.3,2.7,0.6,4,0.9c0.2,0,0.3,0.1,0.5,0.1c1.2,0.3,2.3,0.5,3.5,0.8c1.4,0.3,2.7,0.6,4.1,0.8l0,0
	c1.4,0.3,2.7,0.6,4.1,0.8c0,0,0,0,0.1,0l0,0c0.9,0.2,1.8,0.4,2.7,0.5c0.7,0.1,1.5,0.3,2.2,0.5v0.1l0,0l0,0
	c21.6,4.7,43.7,8.2,66.1,10.6c18.8,2,37.9,3.1,57.2,3.4c60.5,0.9,119.2-6.8,174.8-21.9c4.3-1.2,8.6-2.4,12.9-3.7
	c15.6-4.6,30.9-9.8,45.9-15.6l0,0c24.5-9.4,48.2-20.2,71.1-32.4l0,0c10.6-5.7,21.1-11.7,31.3-17.9c2.5,1.1,5.1,2.1,7.8,3
	c14.4,5.1,30.4,8,47.4,8.3c0.5,0,0.9,0,1.3,0c2.5,0,5,0,7.4-0.1C809.6,102.3,815.3,101.8,820.8,100.9z"/>
<path class="st2" d="M282.6,175.5L282.6,175.5c-2.4-0.5-4.8-0.9-7.2-1.4c-4-0.8-7.9-1.6-11.9-2.4c-2.4-0.5-4.9-1-7.3-1.6
	c-3.6-0.8-7.1-1.6-10.7-2.4c-0.1,0-0.1,0-0.1,0l0,0c-3.5-0.8-7-1.7-10.5-2.5c-2-0.5-4-1-6.1-1.5c-0.1,0-0.2,0-0.2-0.1
	c-0.1,0-0.2-0.1-0.3-0.1c-0.4-0.1-0.9-0.2-1.3-0.3c-0.5-0.1-1-0.3-1.6-0.4c-0.2,0-0.3-0.1-0.5-0.1c-0.4-0.1-0.7-0.2-1.1-0.3
	c-0.2,0-0.3-0.1-0.5-0.1c-0.5-0.1-1-0.2-1.4-0.4c-0.1,0-0.2,0-0.3-0.1c-0.3-0.1-0.5-0.1-0.8-0.2c-0.2,0-0.4-0.1-0.6-0.2
	c-0.1,0-0.2-0.1-0.3-0.1c-0.3-0.1-0.7-0.2-1-0.3c-0.2-0.1-0.4-0.1-0.6-0.2c-0.1,0-0.3-0.1-0.4-0.1c-0.4-0.1-0.8-0.2-1.2-0.3
	c-0.8-0.2-1.6-0.4-2.5-0.7c-8.2-2.3-16.4-4.7-24.5-7.3c-5.9-1.9-11.8-3.9-17.6-6c-2.8-1-5.5-2-8.2-3c-1.4-0.5-2.7-1-4.1-1.5
	c-2.7-1-5.4-2.1-8.1-3.1c-1-0.4-2-0.8-3.1-1.2l0,0c-1.6-0.7-3.3-1.3-4.9-2c-1.3-0.5-2.6-1.1-4-1.6c-3.9-1.7-7.8-3.3-11.7-5.1l0,0
	c-2.6-1.2-5.1-2.3-7.6-3.5l0,0c-2.5-1.2-5-2.4-7.5-3.6l0,0c-2.5-1.2-4.9-2.4-7.4-3.6c-1.2-0.6-2.4-1.2-3.7-1.8
	c-3.6-1.8-7.2-3.7-10.7-5.6c-2.3-1.3-4.7-2.5-7-3.8s-4.5-2.6-6.8-3.9l0,0c-2.2-1.3-4.4-2.6-6.6-3.9c-2.2-1.3-4.3-2.6-6.4-4
	c-3.2-2-6.3-4-9.3-6c-12.3-8.1-23.4-16.5-33-24.9c-4.6-4.1-9-8.1-12.9-12.2c-0.7-0.7-1.3-1.4-2-2.1c-1.9-2.1-3.8-4.1-5.5-6.2l0,0
	c14-8,29.9-14.9,47.1-20.3C63,19,77.2,15.9,90.8,14.1h0.1c3.3-0.4,6.5-0.8,9.7-1.1c2.3-0.1,4.6-0.2,7-0.1c2.7,0,5.4,0.2,8.1,0.5
	c21.1,7.9,40.8,17.6,58.9,28.8c10.1,6.3,19.7,13.1,28.7,20.3c26.1,20.9,47.3,45.5,62.2,72.6c0.2,0.4,0.5,0.8,0.7,1.3l0,0
	c-2.6-0.4-5.2-0.7-7.8-1.1c-20.2-3-39.7-7-58.8-11.9c-8.1-2-16.1-4.2-24-6.6C140.2,106.4,106.3,93.5,73,79.5
	c-7.8-3.3-22.2-10.2-34.5-16.2c-0.9-0.4-1.7-0.8-2.6-1.3c-0.3-0.1-0.6-0.3-0.8-0.4c-2.5-1.2-4.9-2.4-7-3.5c-0.6-0.3-1.2-0.6-1.8-0.9
	c-0.3-0.2-0.6-0.3-0.9-0.4c-0.4-0.2-0.8-0.4-1.2-0.6c-0.4-0.2-0.8-0.4-1.1-0.6c-0.2-0.1-0.4-0.2-0.5-0.3c0.6,0.6,1.2,1.1,1.8,1.7
	c0.4,0.4,0.9,0.8,1.3,1.2c0.8,0.7,1.6,1.4,2.5,2.2l0,0c0.5,0.4,1,0.8,1.5,1.3c0.5,0.4,1,0.9,1.5,1.3c1,0.8,2.1,1.7,3.1,2.6l0,0
	c2.8,2.3,5.8,4.5,8.8,6.8c1.5,1.1,3.1,2.3,4.7,3.4c3.6,2.6,7.3,5.1,11.2,7.7c1.9,1.3,3.9,2.6,5.9,3.8c2,1.3,4,2.5,6.1,3.8l0,0
	c1.5,0.9,3.1,1.9,4.6,2.8c0.1,0,0.2,0.1,0.3,0.1c0.7,0.4,1.5,0.9,2.2,1.3c0.8,0.4,1.5,0.9,2.3,1.3c0.6,0.3,1.2,0.7,1.7,1
	c1,0.6,2.1,1.2,3.1,1.8c1.3,0.7,2.5,1.4,3.8,2.1c1.3,0.7,2.5,1.4,3.8,2.1c0.3,0.2,0.6,0.3,0.9,0.5c0.2,0.1,0.5,0.3,0.7,0.4
	c1.1,0.6,2.3,1.2,3.4,1.8c2.2,1.2,4.5,2.4,6.8,3.6c1.1,0.6,2.3,1.2,3.5,1.8c1.1,0.6,2.3,1.2,3.5,1.7c3.4,1.7,6.9,3.4,10.4,5
	c1.2,0.6,2.3,1.1,3.5,1.7c1.7,0.8,3.4,1.6,5.1,2.4c3.2,1.5,6.5,2.9,9.8,4.4c1.7,0.7,3.3,1.4,5,2.1c3.3,1.4,6.7,2.8,10,4.1
	c4.7,1.9,9.5,3.8,14.4,5.6l10.6,3.8c3.5,1.2,7.1,2.4,10.6,3.6l1.5,0.5l5.6,1.8c2.4,0.8,4.8,1.5,7.1,2.2l7.2,2.1
	c2.5,0.7,5,1.4,7.5,2.1c12.6,3.5,25.7,6.7,39,9.7c1.3,0.3,2.7,0.6,4,0.9c2.7,0.6,5.4,1.2,8.1,1.7c1.4,0.3,2.7,0.6,4.1,0.8
	c0,0,0,0,0.1,0l0,0c1.6,0.3,3.3,0.7,5,1v0.1C281.3,171.1,281.9,173.3,282.6,175.5z"/>
<path class="st2" d="M766.9,18.5C735.2,18,707.2,10.7,690.1,0l0,0c-40.8,42.7-89.5,79.3-144.2,107.6c-12,6.2-24.4,12-36.9,17.4
	c-6.9,3-14,5.8-21.1,8.5c15.4,1.6,30.9,2.5,46.7,2.8c22.3,0.3,44.3-0.7,66-3.1c1.5-0.5,3.1-1,4.6-1.5
	c78.9-26.6,149.5-67.2,207.7-117.6C799.3,17.1,783.6,18.7,766.9,18.5z"/>
<path class="st2" d="M820.8,100.9c-0.9,0.6-1.9,1.2-2.8,1.9c-1.1,0.7-2.1,1.4-3.2,2c-1.1,0.7-2.1,1.4-3.2,2.1
	c-1.1,0.7-2.1,1.3-3.2,2c-0.9,0.5-1.7,1.1-2.6,1.6c-1.1,0.7-2.1,1.3-3.2,1.9c-2.2,1.3-4.3,2.6-6.5,3.8c-0.2,0.1-0.5,0.3-0.7,0.4
	c-0.3,0.2-0.7,0.4-1,0.6c-0.3,0.2-0.6,0.3-0.8,0.5c-0.4,0.2-0.7,0.4-1.1,0.6c-1.2,0.7-2.5,1.4-3.7,2.1c-0.3,0.2-0.6,0.3-0.9,0.5
	c-0.2,0.1-0.4,0.2-0.6,0.3c-0.7,0.4-1.5,0.8-2.2,1.2c-0.3,0.2-0.6,0.3-0.9,0.5c-0.4,0.2-0.9,0.5-1.3,0.7s-0.9,0.5-1.3,0.7
	c-0.3,0.2-0.6,0.3-0.8,0.4c-0.2,0.1-0.4,0.2-0.6,0.3c-0.5,0.3-0.9,0.5-1.4,0.7c-0.4,0.2-0.8,0.4-1.2,0.6c-0.6,0.3-1.1,0.6-1.6,0.8
	c-0.4,0.2-0.9,0.5-1.3,0.7c-0.3,0.2-0.7,0.3-1,0.5c-0.6,0.3-1.2,0.6-1.8,0.9c-1.4,0.7-2.8,1.4-4.2,2.1c-1.4,0.7-2.8,1.4-4.3,2.1
	c-0.7,0.3-1.3,0.6-2,0.9c-1,0.5-2.1,1-3.1,1.5c-0.3,0.2-0.7,0.3-1,0.5c-1.4,0.6-2.8,1.3-4.2,1.9c-1.4,0.6-2.8,1.3-4.3,1.9
	c-1.4,0.6-2.8,1.3-4.2,1.9c-1.9,0.8-3.9,1.7-5.8,2.5c-1.9,0.8-3.9,1.6-5.9,2.4c-0.3,0.1-0.6,0.2-0.9,0.3c-0.6,0.2-1.1,0.5-1.7,0.7
	c-1,0.4-1.9,0.8-2.9,1.1c-39.5,8.9-80.6,13.3-122.9,12.7c-8.6-0.1-17.1-0.5-25.5-1c4.3-1.2,8.6-2.4,12.9-3.7
	c15.6-4.6,30.9-9.8,45.9-15.6l0,0c24.5-9.4,48.2-20.2,71.1-32.4l0,0c10.6-5.7,21.1-11.7,31.3-17.9c2.5,1.1,5.1,2.1,7.8,3
	c14.4,5.1,30.4,8,47.4,8.3c0.5,0,0.9,0,1.3,0c2.5,0,5,0,7.4-0.1C809.5,102.3,815.3,101.8,820.8,100.9z"/>
<g>
	<path class="st1" d="M59.4,361.1c-0.8-3.4-1-6.5-0.4-9.7l0.2-1.8c-8.9,8.5-18.8,12.7-30.1,12.7c-19.8,0-31.3-12.3-28.7-30.5
		c1.4-9.7,6.9-17.8,16.4-23.9c9.5-6.1,21.2-9.3,34.8-9.3c5.7,0,10.7,0.2,15,0.8l0.2-1.8c1.4-8.5-4.6-13.3-14-13.3
		c-11.3,0-20.6,2-27.9,6.1l-12.5-15.2c12.9-10.1,27.1-15,42.3-15c14.2,0,25.3,3.4,33.2,10.1c8.1,6.7,11.3,15.4,9.7,25.9l-8.3,55.2
		c-0.6,3.6-0.6,6.7,0,9.7H59.4z M53.7,316c-11.9,0-21.4,5.9-22.4,13.3c-1,5.5,4,9.7,11.3,9.7c10.9,0,19.6-9.3,21.4-21.4
		C60.6,316.6,57.1,316,53.7,316z"/>
	<path class="st1" d="M212.3,321.7h-67.4c1.4,10.5,10.3,17.4,23.5,17.4c9.5,0,17-2.4,22.8-7.3l13.7,16.8
		c-11.3,9.5-25.3,14.2-41.9,14.2c-16.2,0-28.7-4.7-37.4-14c-8.5-9.5-11.7-22-9.5-37.2s8.7-27.7,19.2-37c10.5-9.5,23.1-14.2,38-14.2
		c14.4,0,25.3,4.7,32.8,14.2s10.1,22,7.9,37.2L212.3,321.7z M184.6,301.6c1.6-10.3-4.7-17.2-14.8-17.2c-9.3,0-17.6,6.7-21.4,17.2
		H184.6z"/>
	<path class="st1" d="M266,262.2c0.6,3.4,0.8,6.5,0.4,9.7l-1.8,12.1c8.5-14.4,21.4-23.7,35-23.7l-4,26.1c-8.5,0-16.2,2.6-23.1,7.5
		c-6.7,4.9-10.7,10.1-11.7,15.4l-7.7,51.8h-30.5l13.3-89.2c0.6-3,0.6-6.1,0-9.7L266,262.2L266,262.2z"/>
	<path class="st1" d="M396.3,274.7c8.3,9.5,11.3,21.8,9.1,37s-8.9,27.5-20.2,37.2c-11.3,9.5-24.7,14.2-40.4,14.2
		s-27.5-4.7-35.8-14.2s-11.3-22-9.1-37.2s8.9-27.7,20.2-37.2s24.5-14.2,40.2-14.2S388,265,396.3,274.7z M374.8,311.7
		c2.4-15.8-4.9-27.3-18.2-27.3c-12.7,0-23.7,11.5-26.1,27.3s5.3,27.3,18,27.3C361.7,339,372.4,327.5,374.8,311.7z"/>
	<path class="st1" d="M459.6,262.2c0.8,3.4,1,6.5,0.6,9.9l-0.8,5.1c8.9-10.7,19.8-16,32.4-16c11.3,0,20,4.7,25.7,14
		c5.7,9.3,7.5,21.6,5.3,36.4c-2.2,15-8.5,27.3-19,36.6c-10.3,9.3-22.8,13.8-37.2,13.8c-7.5,0-14-1-19.6-3.2l-6.9,46.7h-30.7
		l20-133.5c0.4-4.2,0.4-7.3,0.2-9.9h30V262.2z M450.5,336.6c5.9,1.2,11.5,1.8,16.4,1.8c12.7,0,23.1-10.9,25.5-26.7
		c2.4-15.6-4.6-26.5-16.6-26.5c-4.7,0-9.1,1.8-13.3,5.5c-4.2,3.6-6.3,7.1-6.7,10.7L450.5,336.6z"/>
	<path class="st1" d="M632.7,274.7c8.3,9.5,11.3,21.8,9.1,37s-8.9,27.5-20.2,37.2c-11.3,9.5-24.7,14.2-40.4,14.2
		c-15.6,0-27.5-4.7-35.8-14.2s-11.3-22-9.1-37.2s8.9-27.7,20.2-37.2s24.5-14.2,40.2-14.2C612.3,260.2,624.4,265,632.7,274.7z
		 M611.2,311.7c2.4-15.8-4.9-27.3-18.2-27.3c-12.7,0-23.7,11.5-26.1,27.3c-2.4,15.8,5.3,27.3,18,27.3
		C598.1,339,608.8,327.5,611.2,311.7z"/>
	<path class="st1" d="M696.2,262.2c0.6,3.4,0.8,6.5,0.4,9.7l-1.8,12.1c8.5-14.4,21.4-23.7,35-23.7l-4,26.1c-8.5,0-16.2,2.6-23.1,7.5
		C696,298.8,692,304,691,309.3l-7.7,51.8h-30.4l13.3-89.2c0.6-3,0.6-6.1,0-9.7L696.2,262.2L696.2,262.2z"/>
	<path class="st1" d="M739.9,286.3l3.6-24.1h14.8l3.4-22.8h30.5l-3.4,22.8h27.9l-3.6,24.1h-27.9l-5.1,33.8
		c-1.6,11.1,3.8,18.8,13.1,18.8c4.4,0,8.7-1.6,13.1-4.7l13.3,16.2c-9.3,8.5-20.4,12.7-33.4,12.7c-12.9,0-22.6-4.2-29.1-12.3
		s-8.9-18.8-7.1-32l4.9-32.4L739.9,286.3L739.9,286.3z"/>
	<path class="st1" d="M836.3,361.1l4.6-30.9h30.5l-4.6,30.9H836.3z"/>
	<path class="st1" d="M934.2,262.2c0.6,3.4,0.8,6.5,0.4,9.7l-1.8,12.1c8.5-14.4,21.4-23.7,35-23.7l-4,26.1c-8.5,0-16.2,2.6-23.1,7.5
		C934,298.8,930,304,929,309.3l-7.7,51.8h-30.4l13.3-89.2c0.6-3,0.6-6.1,0-9.7L934.2,262.2L934.2,262.2z"/>
	<path class="st1" d="M991.2,262.2h30.7l-6.3,42.3l-2.8,13.5c-1.8,12.1,4.2,20.6,14.4,21.2l-2.2,0.6c0.4,0.2,1.2,0.2,2.2,0.2
		c5.3,0,10.3-2.2,14.8-6.7s7.1-9.5,7.9-14.8l8.3-56.2h30.7l-13.3,89.2c-0.6,3.4-0.6,6.5-0.2,9.7h-29.9c-1-3.6-1.2-6.7-0.6-9.7
		l0.8-6.1c-9.3,11.7-20.8,17.6-34.2,17.6c-10.5,0-18.4-3.6-23.9-10.7c-5.5-7.3-7.5-16.6-5.7-28.1L991.2,262.2z"/>
</g>
</svg>
